<svg xmlns="http://www.w3.org/2000/svg" version="1.1" width="512" height="512" x="0" y="0" viewBox="0 0 496.038 496" style="enable-background:new 0 0 512 512" xml:space="preserve" class=""><g><path fill="#ac92ec" d="M96 424.02v8c-58.328-43.84-96-113.512-96-192C0 107.46 107.441.02 240 .02c132.543 0 240 107.44 240 240 0 34.398-7.2 67.12-20.328 96.71-34.39-25.03-82.871-22-113.84 9.047a87.85 87.85 0 0 0-16.16 22.235H288V333.21c37.832-18 64-56.559 64-101.2v-88c0-26.562-21.457-48-48-48v-40h-80c-53.047 0-96 42.887-96 96v79.993c0 44.64 26.16 83.2 64 101.2v34.8h-40c-30.969.016-56 25.062-56 56.016zm0 0" opacity="1" data-original="#ac92ec"></path><path fill="#967adc" d="M240 .02c-5.39 0-10.703.246-16 .59 125.078 8.234 224 112.25 224 239.41 0 127.167-98.922 231.167-224 239.398 5.297.36 10.61.594 16 .594 132.543 0 240-107.457 240-240C480 107.477 372.543.02 240 .02zm0 0" opacity="1" data-original="#967adc"></path><path fill="#a0d468" d="M459.672 336.738c3.687 2.723 7.2 5.688 10.558 9.047 34.41 34.313 34.41 90.082 0 124.395-34.328 34.406-90.078 34.406-124.406 0a92.343 92.343 0 0 1-9.031-10.473c-19.61-26.969-22-62.559-7.129-91.687a87.756 87.756 0 0 1 16.16-22.235c30.977-31.047 79.457-34.078 113.848-9.047zm0 0" opacity="1" data-original="#a0d468"></path><path fill="#e6e9ed" d="M329.594 368.02h.078c-14.871 29.128-12.488 64.718 7.129 91.687-29.61 13.031-62.328 20.313-96.801 20.313-54.098 0-103.922-17.84-144-48v-8c0-30.954 25.031-56 56-56h40l24 16 24-8 24 8 24-16zm0 0" opacity="1" data-original="#e6e9ed"></path><path fill="#f5f7fa" d="M288 333.219v34.8l-24 16-24-8-24 8-24-16v-34.8c14.543 6.953 30.8 10.8 48 10.8 17.184 0 33.441-3.847 48-10.8zm0 0" opacity="1" data-original="#f5f7fa"></path><path fill="#eac6bb" d="M352 192.02v40c0 44.64-26.168 83.199-64 101.199-14.559 6.953-30.816 10.8-48 10.8-17.2 0-33.457-3.84-48-10.8-37.84-18-64-56.559-64-101.2v-40.152l32-31.84s36.543 16 80 16c43.441 0 80-16 80-16zm0 0" opacity="1" data-original="#eac6bb"></path><path fill="#d3b1a9" d="M320 160.02v72c0 44.64-26.168 83.199-64 101.199-9.953 4.754-20.719 7.922-32 9.527 5.23.754 10.543 1.266 16 1.266 17.184 0 33.441-3.84 48-10.801 37.832-18 64-56.559 64-101.2v-40zm0 0" opacity="1" data-original="#d3b1a9"></path><path fill="#965353" d="M352 144.02v48l-32-32s-36.559 16-80 16c-43.457 0-80-16-80-16l-32 31.84v-39.84c0-53.114 42.953-96 96-96h80v40c26.543 0 48 21.44 48 48zm0 0" opacity="1" data-original="#965353"></path><path fill="#844646" d="M304 96.02v-40h-32v56c26.543 0 48 13.44 48 40v8l32 32v-48c0-26.56-21.457-48-48-48zm0 0" opacity="1" data-original="#844646"></path><path fill="#ccd1d9" d="M240.246 424.004c-4.422 0-8.031-3.578-8.031-8 0-4.426 3.527-8 7.953-8h.078c4.426 0 8 3.574 8 8 0 4.422-3.574 8-8 8zM240.246 456.004c-4.422 0-8.031-3.578-8.031-8 0-4.426 3.527-8 7.953-8h.078c4.426 0 8 3.574 8 8 0 4.422-3.574 8-8 8zm0 0" opacity="1" data-original="#ccd1d9"></path><path fill="#ffffff" d="M448.016 400.004h-32v-32c0-4.426-3.575-8-8-8-4.422 0-8 3.574-8 8v32h-32c-4.422 0-8 3.574-8 8 0 4.422 3.578 8 8 8h32v32c0 4.422 3.578 8 8 8 4.425 0 8-3.578 8-8v-32h32c4.425 0 8-3.578 8-8 0-4.426-3.575-8-8-8zm0 0" opacity="1" data-original="#ffffff"></path></g></svg>