<svg xmlns="http://www.w3.org/2000/svg" version="1.1" width="512" height="512" x="0" y="0" viewBox="0 0 470.003 470.003" style="enable-background:new 0 0 512 512" xml:space="preserve" class=""><g><path fill="#e6edff" d="M411.946 380.125c-58.382 68.268-174.157 115.12-276.889 75.156C61.418 426.635-6.484 352.55.497 271.203c4.424-51.551 39.255-109.896 91.474-135.484 41.094-20.136 76.474-11.91 99.003-41.857 19.796-26.315 3.602-47.454 20.408-68.425C237.958-7.724 320.401-7.215 370.761 19.73c99.73 53.36 142.644 241.755 41.185 360.395z" opacity="1" data-original="#e6edff"></path><path fill="#fdd2b5" d="M28.002 296.047h41.945v58.954H28.002z" opacity="1" data-original="#fdd2b5"></path><path fill="#f9c19b" d="M28.002 296.047h18v58.954h-18z" opacity="1" data-original="#f9c19b"></path><path fill="#fdd2b5" d="M190.617 296.047h42.234v58.954h-42.234z" opacity="1" data-original="#fdd2b5"></path><path fill="#333333" d="M232.851 360.002h-42.234a5 5 0 0 1-5-5v-58.955a5 5 0 0 1 5-5h42.234a5 5 0 0 1 5 5v58.955a5 5 0 0 1-5 5zm-37.234-10h32.234v-48.955h-32.234z" opacity="1" data-original="#333333"></path><path fill="#fcca3d" d="M190.617 355.002H69.947v-85.409 26.366l-41.945.089v-24.17c0-45.38 36.837-82.169 82.277-82.169h40.295c45.441 0 82.277 36.788 82.277 82.169v24.17h-42.234z" opacity="1" data-original="#fcca3d"></path><path fill="#e5a505" d="M123.324 189.709h-13.045c-45.44 0-82.277 36.788-82.277 82.169v24.17l18-.038v-19.132c0-43.717 34.191-79.446 77.322-82.007z" opacity="1" data-original="#e5a505"></path><path fill="#fdd2b5" d="M130.282 227.087c-15.836 0-28.673-12.82-28.673-28.635V96.85h57.347v101.601c-.001 15.815-12.838 28.636-28.674 28.636z" opacity="1" data-original="#fdd2b5"></path><path fill="#f9c19b" d="M116.609 198.451V96.85h-15v101.601c0 15.815 12.838 28.635 28.673 28.635 2.596 0 5.109-.351 7.5-.996-12.197-3.293-21.173-14.416-21.173-27.639z" opacity="1" data-original="#f9c19b"></path><path fill="#f9c19b" d="M130.426 179.438a54.48 54.48 0 0 1-28.818-8.202v15a54.468 54.468 0 0 0 28.818 8.202c10.454 0 20.22-2.933 28.529-8.017v-15a54.486 54.486 0 0 1-28.529 8.017z" opacity="1" data-original="#f9c19b"></path><path fill="#fdd2b5" d="M130.426 179.438c30.233 0 54.741-24.508 54.741-54.741V41.084H75.686v83.613c0 30.232 24.508 54.741 54.74 54.741z" opacity="1" data-original="#fdd2b5"></path><path fill="#f9c19b" d="m185.167 87.046-46.209.129c-16.593-.995-32.211-3.784-46.717-15.187-6.705-5.271-16.556-.387-16.556 8.136v16c0-8.522 9.85-13.407 16.556-8.136 14.506 11.403 30.124 14.192 46.717 15.187l46.209-.129z" opacity="1" data-original="#f9c19b"></path><path fill="#616161" d="M85.883 28.966c0-13.235 10.743-23.964 23.996-23.964h3.873c27.463 0 54.02 10.849 72.893 30.773 12.562 13.261 22.609 31.356 22.603 55.314-.009 33.097-24.08 38.574-24.08 38.574V87.046l-46.209.129c-16.594-.995-32.211-3.784-46.717-15.187-6.705-5.271-16.556-.387-16.556 8.136v49.284s-27.362.257-27.27-46.313c-.001-.002-2.23-53.108 37.467-54.129z" opacity="1" data-original="#616161"></path><path fill="#4c4c4c" d="M61.415 95.093s-2.229-53.106 37.468-54.127c0-13.235 10.743-23.964 23.996-23.964h3.873c22.32 0 44.042 7.167 61.526 20.547a95.751 95.751 0 0 0-1.633-1.773c-18.874-19.924-45.43-30.773-72.893-30.773h-3.873c-13.253 0-23.996 10.729-23.996 23.964-39.697 1.021-37.468 54.127-37.468 54.127-.061 30.748 11.845 41.08 19.943 44.553-3.996-6.862-6.973-17.142-6.943-32.554z" opacity="1" data-original="#4c4c4c"></path><path fill="#fdd2b5" d="M442.002 355.002h-41.945v-58.954h41.945z" opacity="1" data-original="#fdd2b5"></path><path fill="#f9c19b" d="M424.002 296.047h18v58.954h-18z" opacity="1" data-original="#f9c19b"></path><path fill="#fdd2b5" d="M279.387 355.002h-42.234v-58.954h42.234z" opacity="1" data-original="#fdd2b5"></path><path fill="#333333" d="M279.386 360.002h-42.234a5 5 0 0 1-5-5v-58.955a5 5 0 0 1 5-5h42.234a5 5 0 0 1 5 5v58.955a5 5 0 0 1-5 5zm-37.234-10h32.234v-48.955h-32.234z" opacity="1" data-original="#333333"></path><path fill="#1fd4af" d="M279.386 355.002h120.67v-85.409 26.366l41.945.089v-24.17c0-45.38-36.837-82.169-82.277-82.169h-40.295c-45.441 0-82.277 36.788-82.277 82.169v24.17h42.234z" opacity="1" data-original="#1fd4af"></path><path fill="#0eaf89" d="M346.68 189.709h13.045c45.44 0 82.277 36.788 82.277 82.169v24.17l-18-.038v-19.132c0-43.717-34.191-79.446-77.322-82.007z" opacity="1" data-original="#0eaf89"></path><path fill="#fdd2b5" d="M339.432 227.087c-15.836 0-28.673-12.82-28.673-28.635V96.85h57.347v101.601c0 15.815-12.838 28.636-28.674 28.636z" opacity="1" data-original="#fdd2b5"></path><path fill="#f9c19b" d="M325.759 198.451V96.85h-15v101.601c0 15.815 12.838 28.635 28.673 28.635 2.596 0 5.109-.351 7.5-.996-12.197-3.293-21.173-14.416-21.173-27.639z" opacity="1" data-original="#f9c19b"></path><path fill="#f9c19b" d="M339.577 179.438a54.48 54.48 0 0 1-28.818-8.202v15a54.468 54.468 0 0 0 28.818 8.202c10.454 0 20.22-2.933 28.529-8.017v-15a54.491 54.491 0 0 1-28.529 8.017z" opacity="1" data-original="#f9c19b"></path><path fill="#fdd2b5" d="M339.577 179.438c30.233 0 54.741-24.508 54.741-54.741V41.084H284.836v83.613c0 30.232 24.508 54.741 54.741 54.741z" opacity="1" data-original="#fdd2b5"></path><path fill="#f9c19b" d="m394.318 87.046-46.209.129c-16.594-.995-32.211-3.784-46.717-15.187-6.705-5.271-16.556-.387-16.556 8.136v16c0-8.522 9.85-13.407 16.556-8.136 14.506 11.403 30.124 14.192 46.717 15.187l46.209-.129z" opacity="1" data-original="#f9c19b"></path><path fill="#616161" d="M295.034 28.966c0-13.235 10.743-23.964 23.996-23.964h3.873c27.463 0 54.02 10.849 72.893 30.773 12.562 13.261 22.609 31.356 22.603 55.314-.009 33.097-24.08 38.574-24.08 38.574V87.046l-46.209.129c-16.594-.995-32.211-3.784-46.717-15.187-6.705-5.271-16.556-.387-16.556 8.136v49.284s-27.362.257-27.27-46.313c-.001-.002-2.231-53.108 37.467-54.129z" opacity="1" data-original="#616161"></path><path fill="#4c4c4c" d="M270.566 95.093s-2.229-53.106 37.468-54.127c0-13.235 10.743-23.964 23.996-23.964h3.873c22.32 0 44.042 7.167 61.526 20.547a95.751 95.751 0 0 0-1.633-1.773c-18.874-19.924-45.43-30.773-72.893-30.773h-3.873c-13.253 0-23.996 10.729-23.996 23.964-39.697 1.021-37.468 54.127-37.468 54.127-.061 30.748 11.845 41.08 19.943 44.553-3.996-6.862-6.974-17.142-6.943-32.554z" opacity="1" data-original="#4c4c4c"></path><path fill="#fdd2b5" d="M135.412 369.872h40.784v57.399h-40.784z" opacity="1" data-original="#fdd2b5"></path><path fill="#f9c19b" d="M135.412 369.872h18v57.399h-18z" opacity="1" data-original="#f9c19b"></path><path fill="#fdd2b5" d="M293.526 369.872h41.065v57.399h-41.065z" opacity="1" data-original="#fdd2b5"></path><path fill="#333333" d="M334.592 432.271h-41.065a5 5 0 0 1-5-5v-57.398a5 5 0 0 1 5-5h41.065a5 5 0 0 1 5 5v57.398a5 5 0 0 1-5 5zm-36.066-10h31.065v-47.398h-31.065z" opacity="1" data-original="#333333"></path><path fill="#5c6bc0" d="M293.526 427.271h-117.33v-83.155 25.67l-40.784.086V346.34c0-44.183 35.817-80 80-80h39.179c44.183 0 80 35.817 80 80v23.532h-41.065z" opacity="1" data-original="#5c6bc0"></path><path fill="#5060a3" d="M153.412 353.34c0-44.183 35.817-80 80-80h39.18c6.82 0 13.439.859 19.76 2.465-11.248-6.034-24.102-9.465-37.76-9.465h-39.18c-44.183 0-80 35.817-80 80v23.532l18-.038z" opacity="1" data-original="#5060a3"></path><path fill="#fdd2b5" d="M234.861 302.732c-15.398 0-27.88-12.482-27.88-27.88v-98.92h55.759v98.92c.001 15.397-12.481 27.88-27.879 27.88z" opacity="1" data-original="#fdd2b5"></path><path fill="#f9c19b" d="M234.861 254.565a52.967 52.967 0 0 1-27.88-7.885v16a52.967 52.967 0 0 0 27.88 7.885 52.967 52.967 0 0 0 27.88-7.885v-16a52.967 52.967 0 0 1-27.88 7.885z" opacity="1" data-original="#f9c19b"></path><path fill="#f9c19b" d="M222.982 274.852v-98.92h-16v98.92c0 15.397 12.482 27.88 27.88 27.88a27.88 27.88 0 0 0 8-1.171c-11.498-3.44-19.88-14.093-19.88-26.709z" opacity="1" data-original="#f9c19b"></path><path fill="#fdd2b5" d="M234.861 254.565c-29.396 0-53.226-23.83-53.226-53.226v-81.477h106.451v81.477c.001 29.396-23.829 53.226-53.225 53.226z" opacity="1" data-original="#fdd2b5"></path><path fill="#f9c19b" d="M286.305 168.205a96.07 96.07 0 0 1-91.348-20.671c-5.141-4.616-13.321-.968-13.321 5.942v11.126c2.328-4.194 8.263-5.712 12.321-2.068a96.073 96.073 0 0 0 91.348 20.671c.594-.175 2.167-.499 2.746-.703v-14.89c-.579.203-1.152.418-1.746.593z" opacity="1" data-original="#f9c19b"></path><path fill="#616161" d="M302.9 142.701c-.526-18.266-10.064-35.191-25.629-44.763a89.039 89.039 0 0 0-46.678-13.205h-19.094c-12.886 0-23.332 10.446-23.332 23.332-38.598.994-36.431 52.699-36.431 52.699-.089 45.341 29.899 45.341 29.899 45.341v-52.628c0-6.91 8.18-10.558 13.321-5.942a96.073 96.073 0 0 0 91.348 20.671c.594-.175 1.167-.389 1.746-.593v38.493s10.946-4.283 19.593-17.672c6.497-10.062 9.27-21.818 8.418-33.428-.508-6.923-6.222-12.305-13.161-12.305z" opacity="1" data-original="#616161"></path><path fill="#4c4c4c" d="M164.736 172.763s-2.168-51.705 36.431-52.699c0-12.886 10.446-23.332 23.332-23.332h19.094a89.039 89.039 0 0 1 46.678 13.205c.414.254.806.535 1.211.799-3.884-5.017-8.655-9.383-14.211-12.799a89.039 89.039 0 0 0-46.678-13.205h-19.094c-12.886 0-23.332 10.446-23.332 23.332-38.598.994-36.431 52.699-36.431 52.699-.055 27.875 11.257 38.61 19.981 42.746-4.057-6.701-7.009-16.477-6.981-30.746z" opacity="1" data-original="#4c4c4c"></path><path fill="#e0e0e0" d="m235.002 402.216-21.173-27.947 11.253-71.537h21.098l9.995 71.537z" opacity="1" data-original="#e0e0e0"></path><circle cx="340.002" cy="400.002" r="65" fill="#ed4848" opacity="1" data-original="#ed4848"></circle><path fill="#cc4040" d="M292.002 400.002c0-33.015 24.621-60.262 56.5-64.429a65.483 65.483 0 0 0-8.5-.571c-35.898 0-65 29.102-65 65s29.102 65 65 65c2.883 0 5.716-.207 8.5-.571-31.879-4.167-56.5-31.414-56.5-64.429z" opacity="1" data-original="#cc4040"></path><path fill="#ffffff" d="M375.002 395.002h-30v-30a5 5 0 1 0-10 0v30h-30a5 5 0 1 0 0 10h30v30a5 5 0 1 0 10 0v-30h30a5 5 0 1 0 0-10z" opacity="1" data-original="#ffffff"></path><path fill="#333333" d="M424.314 213.254c-13.503-14.831-31.551-24.474-51.209-27.499v-11.66c13.503-9.207 23.057-23.798 25.54-40.665 41.339-17.038 23.975-76.605.78-101.092C378.442 10.188 349.136-.215 319.029.003c-14.396 0-26.377 10.536-28.619 24.294-27.898 3.42-38.22 33.447-37.863 58.04-12.869-3.087-25.949-2.603-39.063-2.603C206.859 29.436 157.34-.281 109.879.003c-14.396 0-26.376 10.536-28.618 24.294-44.963 5.511-56.603 99.108-9.875 109.546 2.558 16.581 11.966 30.922 25.224 40.063v11.88c-42.269 6.604-73.607 42.847-73.607 86.093v83.125a5 5 0 0 0 5 5l.016-.002h102.394v67.271a5 5 0 0 0 5 5l.016-.002h142.485c11.688 22.398 35.124 37.733 62.088 37.733 38.598 0 70-31.402 70-70 0-14.805-4.801-28.619-12.878-40.002h44.862l.016.002a5 5 0 0 0 5-5v-83.125c0-21.735-8.057-42.556-22.688-58.625zm12.688 58.625v19.17h-32.234v-20.433a5 5 0 1 0-10 0v79.386h-6.206c-13.14-12.749-31.133-20.497-50.562-19.948-6.771-34.688-35.337-62.215-70.258-67.682v-12.988a58.744 58.744 0 0 0 7.768-6.364c9.314-9.091 15.202-20.81 16.979-33.516 2.968-1.594 8.074-4.841 13.286-10.506.294 18.295 15.275 33.09 33.659 33.09 18.567 0 33.673-15.089 33.673-33.635v-2.561a76.891 76.891 0 0 1 63.895 75.987zm-202.141 25.854c-12.616 0-22.88-10.264-22.88-22.88V254.88c14.454 6.203 31.3 6.196 45.76.012v19.962c0 12.616-10.264 22.879-22.88 22.879zm16.061 75.271-15.92 20.669-15.891-20.629 10.188-65.313h12.59zm-16.061-123.437c-26.592 0-48.226-21.634-48.226-48.226v-47.864c0-2.563 3.066-3.942 4.98-2.222 25.082 22.523 58.942 30.957 91.435 23.005v28.437c-.724 26.288-21.88 46.87-48.189 46.87zm80.898-51.114v-14.452a59.094 59.094 0 0 0 1.644-3.859c14.583 5.826 31.265 5.677 45.702-.541v18.852c0 13.033-10.619 23.635-23.673 23.635s-23.673-10.602-23.673-23.635zm73.559-73.754c0 27.427-22.313 49.741-49.741 49.741a49.116 49.116 0 0 1-19.439-3.972 60.363 60.363 0 0 0 .91-15.828c-.577-7.863-6.14-14.316-13.417-16.304-1.399-14.23-7.757-27.255-17.795-36.927V80.124c0-4.262 5.068-6.876 8.466-4.205 16.07 12.633 33.292 15.275 49.508 16.248.105.006.223.009.313.009l41.195-.115zM274.713 42.656c5.261-5.628 11.949-8.471 20.449-8.689a5 5 0 0 0 4.871-4.999c0-10.457 8.521-18.964 18.996-18.964 27.394-.168 54.011 9.023 73.137 29.212 17.815 18.807 35.366 64.53 7.152 82.742v-34.91c0-2.969-2.457-4.607-5.014-5l-46.052.128c-16.797-1.019-30.676-3.823-43.771-14.117-9.793-7.7-24.646-.243-24.646 12.066v13.523a94.181 94.181 0 0 0-17.244-8.303c-.278-14.59 1.738-31.578 12.122-42.689zm-44.121 47.078a84.07 84.07 0 0 1 44.06 12.464c14.074 8.655 22.766 23.851 23.25 40.648a5 5 0 0 0 4.998 4.856c4.269 0 7.859 3.369 8.175 7.669.412 5.617-.098 11.127-1.477 16.38-.039.121-.07.242-.1.364a48.328 48.328 0 0 1-6.055 13.605c-3.412 5.284-7.222 8.985-10.393 11.465v-29.574c0-4.795-4.709-5.224-8.159-4.202-30.537 8.999-62.908 1.674-86.594-19.595-8.205-7.369-21.662-1.365-21.662 9.662v46.621c-11.428-3.752-17.066-15.229-18.923-26.346-4.206-22.785 1.578-59.94 30.583-60.688a5 5 0 0 0 4.871-4.999c0-10.108 8.224-18.332 18.332-18.332h19.094zm-159.907-9.61v43.1c-33.153-13.493-21.243-88.319 15.327-89.258a5 5 0 0 0 4.871-4.999c0-10.457 8.521-18.964 18.995-18.964 42.42-.337 87.593 25.671 93.677 70.87a28.39 28.39 0 0 0-13.388 8.575v-2.401c0-2.969-2.457-4.607-5.014-5l-46.052.128c-16.797-1.019-30.676-3.823-43.771-14.117-9.793-7.699-24.645-.244-24.645 12.066zm10 44.575V80.124c0-4.262 5.068-6.876 8.466-4.205 16.07 12.633 33.292 15.275 49.509 16.248.104.006.205.009.313.009l41.195-.115v11.908c-25.124 5.301-34.234 34.094-33.432 56.888a92.709 92.709 0 0 0 .579 10.612 49.32 49.32 0 0 1-16.889 2.971c-27.427-.001-49.741-22.314-49.741-49.741zm73.27 68.557v5.197c0 13.033-10.619 23.635-23.673 23.635s-23.673-10.603-23.673-23.635v-18.972c13.319 5.813 28.756 6.519 42.55 1.946 1.172 4.384 2.781 8.322 4.796 11.829zM64.947 350.002H33.002v-48.963l31.945-.067zm65.465-3.66v3.66H74.947v-80.408a5 5 0 1 0-10 0v21.377l-31.945.067v-19.159a76.953 76.953 0 0 1 63.607-75.941c-.559 19.201 13.896 36.151 33.673 36.151 16.58 0 30.39-12.035 33.158-27.816a33.752 33.752 0 0 0 13.941 6.333c2.576 16.042 11.735 29.905 24.6 38.747v13.096c-41.1 6.493-71.569 41.768-71.569 83.893zm40.784 75.929h-30.784v-47.407l30.784-.065zm102.458 0h-92.458v-78.153a5 5 0 1 0-10 0v20.68l-30.784.065v-18.521c0-36.633 26.105-67.406 61.569-73.773-.454 12.659 5.684 24.732 16.885 30.997l-11.966 69.86a5 5 0 0 0 1.08 4.036l23.173 27.947c1.97 2.377 5.728 2.377 7.697 0l23.173-27.947a4.998 4.998 0 0 0 1.094-3.951l-10.876-70.765c10.452-6.536 15.878-18.11 15.5-30.245a74.624 74.624 0 0 1 60.272 58.551c-32.903 5.705-58.011 34.442-58.011 68.952a69.674 69.674 0 0 0 3.652 22.267zm66.348 37.732c-33.084 0-60-26.916-60-60s26.916-60 60-60 60 26.916 60 60-26.916 60-60 60zm65.054-110.001h-.289v-48.953h32.234v48.953z" opacity="1" data-original="#333333"></path></g></svg>