<svg xmlns="http://www.w3.org/2000/svg" version="1.1" width="512" height="512" x="0" y="0" viewBox="0 0 682.667 682.667" style="enable-background:new 0 0 512 512" xml:space="preserve" class=""><g><defs><clipPath id="a" clipPathUnits="userSpaceOnUse"><path d="M0 512h512V0H0Z" fill="#000000" opacity="1" data-original="#000000"></path></clipPath></defs><g clip-path="url(#a)" transform="matrix(1.33333 0 0 -1.33333 0 682.667)"><path d="M0 0c24.963 0 64.686 66.621 56.976 68.104 0 0-12.696 18.408-12.568 16.868l-4.98 60.196h-78.855l-4.984-60.196-12.564-16.868C-64.685 66.621-24.962 0 0 0" style="fill-opacity:1;fill-rule:nonzero;stroke:none" transform="translate(222.427 181.384)" fill="#ffeae1" data-original="#ffeae1"></path><path d="m0 0-3.121-17.211C-7.349-40.521-27.647-57.47-51.339-57.47c-23.69 0-43.989 16.949-48.217 40.259L-102.677 0s-125.475-18.211-125.475-126.65v-64.022c0-15.141 12.274-27.416 27.416-27.416H98.06c15.141 0 27.416 12.275 27.416 27.416v64.022C125.476-18.211 0 0 0 0" style="fill-opacity:1;fill-rule:nonzero;stroke:none" transform="translate(273.766 252.468)" fill="#3590bb" data-original="#3590bb"></path><path d="m0 0-3.121-17.211C-7.349-40.521-27.647-57.47-51.339-57.47c-23.69 0-43.989 16.949-48.217 40.259L-102.677 0s-125.475-18.211-125.475-126.65v-64.022c0-15.141 12.274-27.416 27.416-27.416H98.06c15.141 0 27.416 12.275 27.416 27.416v64.022C125.476-18.211 0 0 0 0" style="fill-opacity:1;fill-rule:nonzero;stroke:none" transform="translate(273.766 252.468)" fill="#7aabdc" data-original="#7aabdc"></path><path d="m0 0-1.64-9.044c37.172-13.604 92.118-45.845 92.118-117.607v-91.438h7.582c15.141 0 27.416 12.275 27.416 27.416v64.022C125.476-18.212 0 0 0 0" style="fill-opacity:1;fill-rule:nonzero;stroke:none" transform="translate(273.766 252.469)" fill="#5f98d5" data-original="#5f98d5"></path><path d="m0 0 5.167 19.803L-9.878 5.929c-4.188-3.863-9.577-5.99-15.174-5.99-2.625 0-5.242.474-7.776 1.408l-13.267 4.886-28.933 4.26-28.934-4.26-13.266-4.886a22.437 22.437 0 0 0-7.777-1.408c-5.597 0-10.985 2.127-15.172 5.99l-15.047 13.878 5.167-19.806c17.722-67.93 59.588-147.799 68.203-163.853h13.627C-59.665-147.905-17.739-67.98 0 0" style="fill-opacity:1;fill-rule:nonzero;stroke:none" transform="translate(297.455 198.231)" fill="#e5ecf6" data-original="#e5ecf6"></path><path d="m0 0-14.58 4.809v-.001.001L-29.159 0l-22.242-128.438h73.643z" style="fill-opacity:1;fill-rule:nonzero;stroke:none" transform="translate(237.007 162.864)" fill="#fb636f" data-original="#fb636f"></path><path d="m0 0 32.809 14.234-3.682-10.107a6.934 6.934 0 0 1-.429-2.139l-.009-.347c-.302-14.042 8.186-26.802 20.985-32.587l27.547-12.45-40.125-14.78c-18.937-6.974-38.9 7.48-38.182 27.648z" style="fill-opacity:1;fill-rule:nonzero;stroke:none" transform="translate(145.207 252.121)" fill="#d4e2f1" data-original="#d4e2f1"></path><path d="m0 0-.184.04c-6.351 1.384-10.404 7.623-9.087 13.988l8.786 42.43a27.408 27.408 0 0 0 13.361 18.309L36.31 87.999c0-77.777 77.219-217.741 77.219-217.741H77.084L4.029-37.828a11.852 11.852 0 0 0-.599 13.233l4.169 6.838C11.841-10.799 7.962-1.734 0 0" style="fill-opacity:1;fill-rule:nonzero;stroke:none" transform="translate(108.897 164.122)" fill="#5f98d5" data-original="#5f98d5"></path><path d="m0 0-32.813 14.234 3.686-10.107c.25-.687.405-1.408.429-2.139l.009-.347c.302-14.042-8.186-26.802-20.985-32.587l-27.547-12.45 40.125-14.78c18.937-6.974 38.899 7.48 38.182 27.648z" style="fill-opacity:1;fill-rule:nonzero;stroke:none" transform="translate(299.647 252.121)" fill="#d4e2f1" data-original="#d4e2f1"></path><path d="m0 0 .184.04c6.351 1.384 10.404 7.623 9.087 13.988L.485 56.458a27.409 27.409 0 0 1-13.362 18.309L-36.31 87.999c0-77.777-77.22-217.695-77.22-217.695h36.446l73.055 91.868a11.854 11.854 0 0 1 .599 13.233l-4.169 6.838C-11.841-10.799-7.962-1.734 0 0" style="fill-opacity:1;fill-rule:nonzero;stroke:none" transform="translate(335.957 164.122)" fill="#5f98d5" data-original="#5f98d5"></path><path d="M0 0a27.414 27.414 0 0 1-13.361 18.309l-23.434 13.232c0-6.422-.536-13.273-1.502-20.429C-22.807 2.633-7.046-9.082 5.201-25.12z" style="fill-opacity:1;fill-rule:nonzero;stroke:none" transform="translate(336.442 220.58)" fill="#3986ce" data-original="#3986ce"></path><path d="m0 0-33.964-12.511 19.385-33.349H14.58l19.385 33.349z" style="fill-opacity:1;fill-rule:nonzero;stroke:none" transform="translate(222.427 208.725)" fill="#fc8086" data-original="#fc8086"></path><path d="M0 0c0-47.449-38.465-85.914-85.913-85.914-47.449 0-85.914 38.465-85.914 85.914 0 47.448 38.465 85.914 85.914 85.914C-38.465 85.914 0 47.448 0 0" style="fill-opacity:1;fill-rule:nonzero;stroke:none" transform="translate(466.387 93.414)" fill="#93d87b" data-original="#93d87b"></path><path d="M0 0a85.932 85.932 0 0 1-17.463-1.797c39.038-8.097 68.378-42.679 68.378-84.117 0-41.44-29.34-76.021-68.378-84.117A85.932 85.932 0 0 1 0-171.828c47.448 0 85.913 38.465 85.913 85.914S47.448 0 0 0" style="fill-opacity:1;fill-rule:nonzero;stroke:none" transform="translate(380.474 179.328)" fill="#7fd061" data-original="#7fd061"></path><path d="M0 0c0-28.12-22.796-50.916-50.915-50.916-28.12 0-50.916 22.796-50.916 50.916 0 28.119 22.796 50.915 50.916 50.915C-22.796 50.915 0 28.119 0 0" style="fill-opacity:1;fill-rule:nonzero;stroke:none" transform="translate(431.389 93.414)" fill="#f0f0f3" data-original="#f0f0f3"></path><path d="M0 0v-52.934" style="stroke-width:15;stroke-linecap:round;stroke-linejoin:round;stroke-miterlimit:10;stroke-dasharray:none;stroke-opacity:1" transform="translate(380.597 121.75)" fill="none" stroke="#000000" stroke-width="15" stroke-linecap="round" stroke-linejoin="round" stroke-miterlimit="10" stroke-dasharray="none" stroke-opacity="" data-original="#000000"></path><path d="M0 0h-52.933" style="stroke-width:15;stroke-linecap:round;stroke-linejoin:round;stroke-miterlimit:10;stroke-dasharray:none;stroke-opacity:1" transform="translate(407.063 95.283)" fill="none" stroke="#000000" stroke-width="15" stroke-linecap="round" stroke-linejoin="round" stroke-miterlimit="10" stroke-dasharray="none" stroke-opacity="" data-original="#000000"></path><path d="M0 0v-17.483c0-15.142 12.274-27.416 27.416-27.416h245.058" style="stroke-width:15;stroke-linecap:round;stroke-linejoin:round;stroke-miterlimit:10;stroke-dasharray:none;stroke-opacity:1" transform="translate(45.613 79.28)" fill="none" stroke="#000000" stroke-width="15" stroke-linecap="round" stroke-linejoin="round" stroke-miterlimit="10" stroke-dasharray="none" stroke-opacity="" data-original="#000000"></path><path d="M0 0c-33.399-17.391-69.311-49.573-69.311-107.59v-11.455" style="stroke-width:15;stroke-linecap:round;stroke-linejoin:round;stroke-miterlimit:10;stroke-dasharray:none;stroke-opacity:1" transform="translate(114.924 233.407)" fill="none" stroke="#000000" stroke-width="15" stroke-linecap="round" stroke-linejoin="round" stroke-miterlimit="10" stroke-dasharray="none" stroke-opacity="" data-original="#000000"></path><path d="M0 0c-13.368 26.071-35.72 43.238-57.061 54.351" style="stroke-width:15;stroke-linecap:round;stroke-linejoin:round;stroke-miterlimit:10;stroke-dasharray:none;stroke-opacity:1" transform="translate(386.991 179.057)" fill="none" stroke="#000000" stroke-width="15" stroke-linecap="round" stroke-linejoin="round" stroke-miterlimit="10" stroke-dasharray="none" stroke-opacity="" data-original="#000000"></path><path d="M0 0c0-47.449-38.465-85.914-85.913-85.914-47.449 0-85.914 38.465-85.914 85.914 0 47.448 38.465 85.914 85.914 85.914C-38.465 85.914 0 47.448 0 0Z" style="stroke-width:15;stroke-linecap:round;stroke-linejoin:round;stroke-miterlimit:10;stroke-dasharray:none;stroke-opacity:1" transform="translate(466.387 93.414)" fill="none" stroke="#000000" stroke-width="15" stroke-linecap="round" stroke-linejoin="round" stroke-miterlimit="10" stroke-dasharray="none" stroke-opacity="" data-original="#000000"></path><path d="M0 0c3.94-7.833 6.158-16.681 6.158-26.046 0-32.054-25.984-58.038-58.037-58.038-32.054 0-58.038 25.984-58.038 58.038 0 32.053 25.984 58.038 58.038 58.038 9.706 0 18.856-2.383 26.896-6.596" style="stroke-width:15;stroke-linecap:round;stroke-linejoin:round;stroke-miterlimit:10;stroke-dasharray:none;stroke-opacity:1" transform="translate(432.353 119.46)" fill="none" stroke="#000000" stroke-width="15" stroke-linecap="round" stroke-linejoin="round" stroke-miterlimit="10" stroke-dasharray="none" stroke-opacity="" data-original="#000000"></path><path d="m0 0-73.055 91.914a11.854 11.854 0 0 0-.599 13.233l4.169 6.838c4.242 6.958.363 16.023-7.599 17.757l-.184.04c-6.351 1.384-10.404 7.623-9.086 13.989l8.785 42.429a27.408 27.408 0 0 0 13.361 18.309l23.434 13.232C-40.774 139.964 36.445 0 36.445 0" style="stroke-width:15;stroke-linecap:round;stroke-linejoin:round;stroke-miterlimit:10;stroke-dasharray:none;stroke-opacity:1" transform="translate(185.981 34.38)" fill="none" stroke="#000000" stroke-width="15" stroke-linecap="round" stroke-linejoin="round" stroke-miterlimit="10" stroke-dasharray="none" stroke-opacity="" data-original="#000000"></path><path d="m0 0 36.652 46.091" style="stroke-width:15;stroke-linecap:round;stroke-linejoin:round;stroke-miterlimit:10;stroke-dasharray:none;stroke-opacity:1" transform="translate(258.873 34.426)" fill="none" stroke="#000000" stroke-width="15" stroke-linecap="round" stroke-linejoin="round" stroke-miterlimit="10" stroke-dasharray="none" stroke-opacity="" data-original="#000000"></path><path d="M0 0a11.792 11.792 0 0 1 .543 6.636l-8.786 42.429a27.405 27.405 0 0 1-13.361 18.309l-23.433 13.232c0-77.777-77.221-217.695-77.221-217.695" style="stroke-width:15;stroke-linecap:round;stroke-linejoin:round;stroke-miterlimit:10;stroke-dasharray:none;stroke-opacity:1" transform="translate(344.685 171.515)" fill="none" stroke="#000000" stroke-width="15" stroke-linecap="round" stroke-linejoin="round" stroke-miterlimit="10" stroke-dasharray="none" stroke-opacity="" data-original="#000000"></path><path d="m0 0-32.813 14.234 3.686-10.107c.25-.687.405-1.408.429-2.139l.009-.347c.302-14.042-8.186-26.802-20.985-32.587l-27.547-12.45 40.125-14.78c10.665-3.928 21.656-1.058 29.094 5.802" style="stroke-width:15;stroke-linecap:round;stroke-linejoin:round;stroke-miterlimit:10;stroke-dasharray:none;stroke-opacity:1" transform="translate(299.647 252.121)" fill="none" stroke="#000000" stroke-width="15" stroke-linecap="round" stroke-linejoin="round" stroke-miterlimit="10" stroke-dasharray="none" stroke-opacity="" data-original="#000000"></path><path d="M0 0c7.438-6.86 18.43-9.731 29.096-5.803L69.22 8.977l-27.546 12.45c-12.799 5.785-21.287 18.545-20.985 32.587l.009.347c.024.731.179 1.452.429 2.139l3.682 10.107L-8 52.373" style="stroke-width:15;stroke-linecap:round;stroke-linejoin:round;stroke-miterlimit:10;stroke-dasharray:none;stroke-opacity:1" transform="translate(153.207 199.748)" fill="none" stroke="#000000" stroke-width="15" stroke-linecap="round" stroke-linejoin="round" stroke-miterlimit="10" stroke-dasharray="none" stroke-opacity="" data-original="#000000"></path><path d="m0 0 19.385-33.35h29.159L67.929 0" style="stroke-width:15;stroke-linecap:round;stroke-linejoin:round;stroke-miterlimit:10;stroke-dasharray:none;stroke-opacity:1" transform="translate(188.463 196.214)" fill="none" stroke="#000000" stroke-width="15" stroke-linecap="round" stroke-linejoin="round" stroke-miterlimit="10" stroke-dasharray="none" stroke-opacity="" data-original="#000000"></path><path d="m0 0-12.787-73.838" style="stroke-width:15;stroke-linecap:round;stroke-linejoin:round;stroke-miterlimit:10;stroke-dasharray:none;stroke-opacity:1" transform="translate(207.848 162.864)" fill="none" stroke="#000000" stroke-width="15" stroke-linecap="round" stroke-linejoin="round" stroke-miterlimit="10" stroke-dasharray="none" stroke-opacity="" data-original="#000000"></path><path d="m0 0-12.783 73.815" style="stroke-width:15;stroke-linecap:round;stroke-linejoin:round;stroke-miterlimit:10;stroke-dasharray:none;stroke-opacity:1" transform="translate(249.79 89.049)" fill="none" stroke="#000000" stroke-width="15" stroke-linecap="round" stroke-linejoin="round" stroke-miterlimit="10" stroke-dasharray="none" stroke-opacity="" data-original="#000000"></path><path d="m0 0-1.877-22.671" style="stroke-width:15;stroke-linecap:round;stroke-linejoin:round;stroke-miterlimit:10;stroke-dasharray:none;stroke-opacity:1" transform="translate(179.893 289.026)" fill="none" stroke="#000000" stroke-width="15" stroke-linecap="round" stroke-linejoin="round" stroke-miterlimit="10" stroke-dasharray="none" stroke-opacity="" data-original="#000000"></path><path d="m0 0-1.876 22.669M0 0l.39-.169C.132.087-.014.168 0 0Z" style="stroke-width:15;stroke-linecap:round;stroke-linejoin:round;stroke-miterlimit:10;stroke-dasharray:none;stroke-opacity:1" transform="translate(266.835 266.356)" fill="none" stroke="#000000" stroke-width="15" stroke-linecap="round" stroke-linejoin="round" stroke-miterlimit="10" stroke-dasharray="none" stroke-opacity="" data-original="#000000"></path><path d="M0 0v-44.331h51.807v85.159H40.828C18.279 40.828 0 22.549 0 0" style="fill-opacity:1;fill-rule:nonzero;stroke:none" transform="translate(122.34 427.46)" fill="#fb9538" data-original="#fb9538"></path><path d="m0 0-12.484-.001C-23.66-.006-32.715-9.072-32.707-20.248l.017-22.078c.006-9.112 7.397-16.494 16.509-16.489H0Z" style="fill-opacity:1;fill-rule:nonzero;stroke:none" transform="translate(148.898 406.665)" fill="#ffdbcc" data-original="#ffdbcc"></path><path d="m0 0-12.484.002v-58.813h7.255l8.925-.003c9.113-.005 16.503 7.377 16.51 16.489l.017 22.078C20.23-9.071 11.176-.005 0 0" style="fill-opacity:1;fill-rule:nonzero;stroke:none" transform="translate(308.441 406.664)" fill="#ffeae1" data-original="#ffeae1"></path><path d="M0 0h-85.037c-35.475 0-64.234-28.759-64.234-64.233v-62.502c.525-20.665 9.188-40.521 24.746-53.964 11.9-10.284 28.378-19.281 49.869-20.294v-.003l.019.002h.004l.02-.002v.003c21.49 1.013 37.967 10.01 49.869 20.294C-9.188-167.256-.524-147.4 0-126.735v58.812z" style="fill-opacity:1;fill-rule:nonzero;stroke:none" transform="translate(297.06 474.589)" fill="#ffeae1" data-original="#ffeae1"></path><path d="m0 0 11.381-.002c5.465-.003 10.414-2.182 14.053-5.705l-.001 39.65C25.43 69.23-3.176 97.834-38.462 97.834h-130.397a5.841 5.841 0 0 1-5.842-5.842c0-28.633 23.212-51.845 51.845-51.845h93.642C-13.079 40.147 0 27.067 0 10.933Z" style="fill-opacity:1;fill-rule:nonzero;stroke:none" transform="translate(297.06 406.666)" fill="#fba65c" data-original="#fba65c"></path><path d="M0 0v-130.934c-.524-20.666-9.188-40.521-24.745-53.964-6.744-5.829-14.961-11.239-24.724-15.021a81.436 81.436 0 0 1 9.811-1.074v-.003l.019.002h.004l.02-.002v.003c21.49 1.013 37.968 10.01 49.869 20.294 15.558 13.443 24.22 33.299 24.744 53.964V0Z" style="fill-opacity:1;fill-rule:nonzero;stroke:none" transform="translate(262.063 474.589)" fill="#ffdbcc" data-original="#ffdbcc"></path><path d="M0 0c-.003 34.124-26.756 61.994-60.431 63.794V6.204h5.785c16.134 0 29.213-13.08 29.213-29.215v-10.932l11.381-.002c5.465-.003 10.414-2.182 14.053-5.705z" style="fill-opacity:1;fill-rule:nonzero;stroke:none" transform="translate(322.493 440.61)" fill="#fb9538" data-original="#fb9538"></path><path d="m0 0 11.381-.002c5.465-.003 10.414-2.182 14.053-5.705l-.001 39.65C25.43 69.23-3.176 97.834-38.462 97.834h-130.397a5.841 5.841 0 0 1-5.842-5.842c0-28.633 23.212-51.845 51.845-51.845h93.642C-13.079 40.147 0 27.067 0 10.933Z" style="stroke-width:15;stroke-linecap:round;stroke-linejoin:round;stroke-miterlimit:10;stroke-dasharray:none;stroke-opacity:1" transform="translate(297.06 406.666)" fill="none" stroke="#000000" stroke-width="15" stroke-linecap="round" stroke-linejoin="round" stroke-miterlimit="10" stroke-dasharray="none" stroke-opacity="" data-original="#000000"></path><path d="M0 0a63.95 63.95 0 0 1-12.676-38.313v-62.501c.525-20.665 9.188-40.521 24.745-53.964 11.901-10.284 28.378-19.282 49.869-20.294v-.003l.02.002h.004l.019-.002v.003c21.491 1.012 37.968 10.01 49.87 20.294 15.557 13.443 24.219 33.299 24.744 53.964v58.812" style="stroke-width:15;stroke-linecap:round;stroke-linejoin:round;stroke-miterlimit:10;stroke-dasharray:none;stroke-opacity:1" transform="translate(160.466 448.668)" fill="none" stroke="#000000" stroke-width="15" stroke-linecap="round" stroke-linejoin="round" stroke-miterlimit="10" stroke-dasharray="none" stroke-opacity="" data-original="#000000"></path><path d="M0 0c-10.186-7.425-16.81-19.44-16.81-33.009v-26.519" style="stroke-width:15;stroke-linecap:round;stroke-linejoin:round;stroke-miterlimit:10;stroke-dasharray:none;stroke-opacity:1" transform="translate(139.15 460.469)" fill="none" stroke="#000000" stroke-width="15" stroke-linecap="round" stroke-linejoin="round" stroke-miterlimit="10" stroke-dasharray="none" stroke-opacity="" data-original="#000000"></path><path d="M0 0v0l15.077-.004c9.112-.005 16.503 7.378 16.51 16.489l.017 22.078c.007 11.176-9.047 20.243-20.223 20.248L0 58.813" style="stroke-width:15;stroke-linecap:round;stroke-linejoin:round;stroke-miterlimit:10;stroke-dasharray:none;stroke-opacity:1" transform="translate(297.06 347.853)" fill="none" stroke="#000000" stroke-width="15" stroke-linecap="round" stroke-linejoin="round" stroke-miterlimit="10" stroke-dasharray="none" stroke-opacity="" data-original="#000000"></path><path d="m0 0-11.377-.001C-22.553-.006-31.607-9.072-31.6-20.248l.017-22.078c.006-9.112 7.397-16.494 16.51-16.489H0v.003" style="stroke-width:15;stroke-linecap:round;stroke-linejoin:round;stroke-miterlimit:10;stroke-dasharray:none;stroke-opacity:1" transform="translate(147.79 406.665)" fill="none" stroke="#000000" stroke-width="15" stroke-linecap="round" stroke-linejoin="round" stroke-miterlimit="10" stroke-dasharray="none" stroke-opacity="" data-original="#000000"></path></g></g></svg>