<svg xmlns="http://www.w3.org/2000/svg" version="1.1" width="512" height="512" x="0" y="0" viewBox="0 0 64 64" style="enable-background:new 0 0 512 512" xml:space="preserve" class=""><g><linearGradient id="a" x1="7.16" x2="56.84" y1="32" y2="32" gradientUnits="userSpaceOnUse"><stop offset="0" stop-color="#9cffac"></stop><stop offset="1" stop-color="#00b59c"></stop></linearGradient><path fill="url(#a)" d="M45.569 55.622c-14.55-1.784-14.63-22.45.01-24.15a11.216 11.216 0 0 1 2.15 0V17.55H37.136a2.96 2.96 0 0 1-2.958-2.958V4h-24.1A2.925 2.925 0 0 0 7.16 6.919V57.08A2.925 2.925 0 0 0 10.08 60h34.73a2.925 2.925 0 0 0 2.918-2.919v-1.45a12.646 12.646 0 0 1-2.16-.01zM27.444 28.12c6.455.135 7.25 9.268.986 10.55v3.462a.986.986 0 0 1-1.972 0v-3.461a5.316 5.316 0 0 1-4.339-5.226.986.986 0 0 1 1.973 0 3.353 3.353 0 1 0 3.352-3.353 5.327 5.327 0 0 1-.986-10.561V16.08a.986.986 0 0 1 1.972 0v3.45a5.327 5.327 0 0 1 4.34 5.237.986.986 0 1 1-1.973 0 3.358 3.358 0 1 0-3.353 3.353zm8.707-13.53V4.573l11.005 11.005H37.137a.989.989 0 0 1-.986-.986zm11.577 18.855a10.154 10.154 0 1 0 9.112 10.107 10.19 10.19 0 0 0-9.112-10.107zm3.54 11.093h-3.6v3.59a.986.986 0 1 1-1.971 0v-3.59h-3.6a.986.986 0 1 1 0-1.972h3.6v-3.6a.986.986 0 0 1 1.972 0v3.6h3.6a.986.986 0 0 1 0 1.972z" opacity="1" data-original="url(#a)"></path></g></svg>