<svg xmlns="http://www.w3.org/2000/svg" version="1.1" width="512" height="512" x="0" y="0" viewBox="0 0 512.002 512" style="enable-background:new 0 0 512 512" xml:space="preserve" class=""><g><path fill="#f2d1a5" d="m379.664 274.16 67.566-66.86a32.655 32.655 0 0 1 21.754-9.534l3.66-.149c12.626-.52 24.024 7.524 27.77 19.598 2.961 9.539.836 19.93-5.633 27.539l-81.82 96.258a57.32 57.32 0 0 1-38.922 20l-11.637.972a56.914 56.914 0 0 1-4.757.196H236.23c-8.785 0-17.562.507-26.285 1.523l-33.71 3.926-73.38-70.762s40.829-77.12 121.43-54.82c15.074 4.172 30.672 6.164 46.317 6.164h79.796a29.65 29.65 0 0 1 21.36 9.082c10.34 10.742 11.097 27.488 1.765 39.117l-.312.395a29.652 29.652 0 0 1-23.125 11.09h-69.469" opacity="1" data-original="#f2d1a5" class=""></path><path fill="#5ecef4" d="m108.965 441.492 18.48 17.598 50.848-52.164c9.988-10.246 9.758-26.656-.512-36.621L98.027 292.91c-10.28-9.976-26.71-9.7-36.648.617L9.805 347.07l41.476 40.91" opacity="1" data-original="#5ecef4"></path><path fill="#ffffff" d="M96.645 343.945c0 9.461-7.668 17.13-17.13 17.13-9.456 0-17.128-7.669-17.128-17.13 0-9.457 7.672-17.129 17.129-17.129 9.46 0 17.129 7.672 17.129 17.13zm0 0" opacity="1" data-original="#ffffff"></path><path fill="#fcb651" d="M389.395 106.14c0 53.079-43.028 96.11-96.11 96.11s-96.11-43.031-96.11-96.11c0-17.386 4.614-33.69 12.688-47.761a96.227 96.227 0 0 1 13.16-17.816 95.971 95.971 0 0 1 10.97-10.067c16.331-12.82 36.921-20.469 59.292-20.469 53.082 0 96.11 43.032 96.11 96.114zm0 0" opacity="1" data-original="#fcb651" class=""></path><path d="M510.223 214.242c-5.086-16.39-20.606-27.332-37.762-26.644l-3.66.148c-10.735.438-20.832 4.863-28.395 12.426l-56.57 55.976a39.682 39.682 0 0 0-4.629-5.808c-7.437-7.727-17.855-12.156-28.582-12.156h-79.797c-15.055 0-29.738-1.954-43.644-5.801-36.22-10.024-70.778-2.785-99.942 20.93-12.305 10.007-21.148 20.93-26.574 28.648a35.684 35.684 0 0 0-21.035-6.383c-9.613.164-18.582 4.067-25.25 10.992L2.805 340.113c-3.809 3.953-3.73 10.239.183 14.098l41.477 40.91c3.941 3.887 10.293 3.844 14.183-.098 3.887-3.945 3.844-10.293-.097-14.183l-34.422-33.95 44.7-46.406a15.724 15.724 0 0 1 11.14-4.847c4.281-.078 8.254 1.515 11.3 4.468l79.754 77.395a15.747 15.747 0 0 1 4.809 11.148 15.757 15.757 0 0 1-4.496 11.282l-43.926 45.066-11.305-10.766c-4.011-3.82-10.359-3.664-14.18.348-3.816 4.012-3.66 10.36.352 14.176l18.48 17.601a9.998 9.998 0 0 0 6.915 2.766c2.613 0 5.219-1.016 7.183-3.027l50.844-52.168c6.703-6.875 10.32-15.953 10.188-25.555a35.851 35.851 0 0 0-2.469-12.617l17.91-2.086a218.67 218.67 0 0 1 25.129-1.457h121.414c1.86 0 3.742-.078 5.594-.234l11.637-.97a67.462 67.462 0 0 0 32.875-11.827 67.463 67.463 0 0 0 12.855-11.672l81.816-96.258c8.743-10.285 11.57-24.117 7.575-37.008zm-22.856 24.016-81.82 96.258a47.366 47.366 0 0 1-9.027 8.195 47.368 47.368 0 0 1-23.082 8.309l-11.641.968c-1.297.11-2.621.164-3.926.164H236.457c-9.137 0-18.371.535-27.445 1.59l-29 3.375-64.157-61.863c4.372-6.477 12.399-16.914 24.043-26.379 24.254-19.723 51.82-25.496 81.938-17.164 15.644 4.332 32.129 6.527 48.992 6.527h79.797a19.726 19.726 0 0 1 14.137 6.012 19.51 19.51 0 0 1 5.101 9.809 9.922 9.922 0 0 0 .336 2.687c.266 4.703-1.144 9.496-4.277 13.395l-.309.386a19.526 19.526 0 0 1-15.3 7.34h-69.47a10.026 10.026 0 0 0-10.027 10.028c0 5.539 4.489 10.03 10.028 10.03h69.468c12.098 0 23.375-5.413 30.95-14.855l.308-.382c5.801-7.227 8.676-15.97 8.703-24.696l64.274-63.601a22.565 22.565 0 0 1 15.074-6.606l3.66-.148c8.09-.344 15.39 4.828 17.785 12.55a19.046 19.046 0 0 1-3.699 18.07zm0 0" fill="#000000" opacity="1" data-original="#000000" class=""></path><path d="M79.742 316.79c-14.972 0-27.156 12.183-27.156 27.155 0 14.977 12.184 27.16 27.156 27.16 14.977 0 27.16-12.183 27.16-27.16 0-14.972-12.183-27.156-27.16-27.156zm0 34.257c-3.914 0-7.101-3.184-7.101-7.102 0-3.914 3.187-7.097 7.101-7.097s7.102 3.183 7.102 7.097c0 3.918-3.188 7.102-7.102 7.102zM238.23 299.348l-.515.12c-5.39 1.266-8.738 6.665-7.469 12.055 1.082 4.622 5.203 7.739 9.754 7.739.758 0 1.531-.09 2.3-.27l.52-.12c5.39-1.267 8.735-6.665 7.47-12.056-1.267-5.39-6.665-8.73-12.06-7.468zM78.453 405.484l-.52.121c-5.39 1.27-8.734 6.665-7.468 12.055 1.086 4.621 5.203 7.738 9.754 7.738.761 0 1.531-.085 2.304-.265l.516-.121c5.39-1.266 8.738-6.664 7.469-12.055-1.266-5.394-6.664-8.734-12.055-7.473zM293.512 212.277c58.527 0 106.14-47.613 106.14-106.136C399.652 47.613 352.04 0 293.512 0c-24.004 0-46.649 7.816-65.485 22.605a106.548 106.548 0 0 0-12.105 11.114A106.543 106.543 0 0 0 201.39 53.39c-9.172 15.984-14.016 34.226-14.016 52.75 0 58.523 47.613 106.136 106.137 106.136zM218.789 63.371a86.209 86.209 0 0 1 11.793-15.965 86.321 86.321 0 0 1 9.828-9.023c15.274-11.988 33.637-18.324 53.102-18.324 47.465 0 86.082 38.613 86.082 86.082 0 47.464-38.617 86.082-86.082 86.082-47.465 0-86.082-38.618-86.082-86.082 0-15.028 3.925-29.817 11.36-42.77zm0 0" fill="#000000" opacity="1" data-original="#000000" class=""></path><path d="M302.406 140.465c-4.043 2.402-9.297 3.258-12.86 3.258-6.76 0-12.69-7.97-12.69-17.051 0-5.54-4.489-10.027-10.028-10.027s-10.027 4.488-10.027 10.027c0 17.367 10.582 31.98 24.824 36.004.324 5.246 4.668 9.406 9.996 9.406 5.473 0 9.914-4.387 10.02-9.836 14.484-3.758 26.984-14.543 26.984-33.39 0-22.598-23.074-34.926-34.926-34.926-.148 0-14.87-1.309-14.87-10.723 0-14.46 14.722-14.867 14.87-14.867 2.79 0 6.18 1.656 8.852 4.328 1.285 1.289 1.422 1.422 1.422 6.828 0 5.54 4.492 10.008 10.027 10.008 5.54 0 10.031-4.508 10.031-10.047 0-6.41 0-13.672-7.297-20.973-4.386-4.382-9.644-7.5-15.113-9.058-.305-5.266-4.656-9.446-10-9.446-5.535 0-10.027 4.493-10.027 10.032v.656c-10.957 4.07-22.82 13.805-22.82 32.539 0 22.977 23.882 30.746 34.855 30.777 3.012.243 14.937 5.524 14.937 14.868 0 5.5-1.898 9.078-6.16 11.613zm0 0" fill="#000000" opacity="1" data-original="#000000" class=""></path></g></svg>