<svg xmlns="http://www.w3.org/2000/svg" version="1.1"  width="512" height="512" x="0" y="0" viewBox="0 0 512 512" style="enable-background:new 0 0 512 512" xml:space="preserve" class=""><g><path d="m476.871 489.194-.387 4.839-54.71 10.468H263.5l-7.5-2-7.5 2H27.35a4 4 0 0 1-4-4v-6.74c0-33.54 23.69-62.41 56.58-68.96l78.61-15.65 16.9-3.37c12.2-2.54 20.95-13.3 20.95-25.77h119.22c0 12.47 8.75 23.22 20.96 25.77l16.89 3.36 39.153 7.8 15.162 5.673c32.889 6.549 69.096 33.04 69.096 66.58z" style="" fill="#bcedb0" data-original="#bcedb0"></path><path d="M488.65 493.75c0-33.54-23.69-62.4-56.58-68.95l-39.457-7.86c8.297 9.67 29.161 38.824 29.161 87.56h62.876a4 4 0 0 0 4-4v-6.75z" style="" fill="#9fe2ad" data-original="#9fe2ad"></path><path d="m311.065 327.774.387 7.871L313 382.097c0 12.48-5.695 32.358-15.355 40.258l-21.688 10.658-12.46 17.495-3.43 9.37-8.293.025-3.271-9.395-12.453-17.488-9.114-.085-25.548-23.742-11.613-29.184 6.616-11.42 3.062-6.235-1.161-33.806s36.111 26.065 46.581 26.065l24.903-.129c10.468 0 41.289-26.71 41.289-26.71z" style="" fill="#f3c6bd" data-original="#f3c6bd"></path><path d="M294.93 343.129c-7.88 6.9-14.428 8.258-24.898 8.258L245 350.871c-10.47 0-19.733-2.132-27.613-9.032l-20.997-14.065v40.816l6.214 5.438a63.197 63.197 0 0 0 41.646 15.653h23.5c5.317 0 10.569-.671 15.643-1.967 1.907-.487 3.77.913 3.77 2.882v33.132l6.741-1.373c12-6.581 25.29-29.865 25.29-42.345l-3.584-11.42v-42.493l-20.68 17.032z" style="" fill="#f0bdb1" data-original="#f0bdb1"></path><path d="m236.05 433.02-27.13 32.69c-3.75 4.52-10.77 4.22-14.13-.6l-36.62-56.53a26.058 26.058 0 0 1-4.68-14.91v-4.923c0-1.205.721-2.293 1.83-2.762l41.07-17.395v12.15c0 12.48 5.6 24.3 15.26 32.2l23.43 19.17c.35.28.67.58.97.91zM356.68 385.985a3 3 0 0 1 1.83 2.762v4.923c0 5.33-1.63 10.54-4.68 14.91l-36.62 56.53c-3.36 4.82-10.38 5.12-14.13.6l-27.13-32.69c.3-.33.62-.63.97-.91l23.43-19.17a41.594 41.594 0 0 0 15.26-32.2v-12.15l41.07 17.395z" style="" fill="#9fe2ad" data-original="#9fe2ad"></path><path d="M391.658 172.526h-10.644l-2 10.087v67.742l2 12.605h4.876l7.691 2.492 7.311-4.647c6.725-3.332 11.341-10.185 11.341-18.103v-49.918c0-11.189-9.212-20.258-20.575-20.258z" style="" fill="#537983" data-original="#537983"></path><path d="M120.342 172.526c-11.363 0-20.575 9.07-20.575 20.258v49.918c0 11.188 9.212 20.258 20.575 20.258h10.644l2-8.422v-75.796l-2-6.216h-10.644z" style="" fill="#7ca1b1" data-original="#7ca1b1"></path><path d="M366.591 162.526H142.806l-11.82 10v90.434h235.562v-.001h14.466v-90.433z" style="" fill="#678d98" data-original="#678d98"></path><path d="M353.202 108.138c-8.168-17.212-23.139-38.436-41.472-49.618-33.92-21.93-77.54-21.93-111.46 0v.01c-29.25 18.91-55.141 23.911-55.141 84.857l8.231 29.139v90.584c0 18.7 8.07 36.49 22.15 48.8l20.88 18.27 19.39 16.97c7.88 6.9 18 10.7 28.47 10.7h23.5c10.47 0 20.59-3.8 28.47-10.7l19.39-16.97 18.07-15.811 2.81-2.459a64.815 64.815 0 0 0 22.15-48.8v-90.584l4.618-7.332c0-32.581-4.54-46.457-10.056-57.056z" style="" fill="#f8ddd6" data-original="#f8ddd6"></path><path d="M294.877 305.014H276.34c-7.55 0-13.67-6.12-13.67-13.67v-.787c0-7.55 6.12-13.67 13.67-13.67h18.537c7.55 0 13.67 6.12 13.67 13.67v.787c.001 7.549-6.12 13.67-13.67 13.67z" style="" fill="#7ca1b1" data-original="#7ca1b1"></path><path d="m321.161 24-13.839-5.516-14.269-6.731a163.696 163.696 0 0 0-103.229 9.719A113.303 113.303 0 0 0 126.118 154.2l4.868 18.326h22.373V135.09c0-20.494 16.614-37.108 37.108-37.108a37.107 37.107 0 0 1 29.837 15.046 38.976 38.976 0 0 0 31.339 15.803h8.714a38.978 38.978 0 0 0 31.339-15.803 37.107 37.107 0 0 1 29.837-15.046c4.255 0 8.344.716 12.15 2.035 17.464-.039 28.617 16.474 28.617 32.713l1.553 34.615 12.282-.874 5.607-11.729c7.954-29.943 5.05-53.588-11.129-80.01l-2.323-5.055C356.262 50.033 342.23 33.312 321.161 24z" style="" fill="#e29a76" data-original="#e29a76"></path><path d="M373.004 65.94a113.302 113.302 0 0 0-50.828-44.468 163.64 163.64 0 0 0-29.122-9.719s40.627 28.912 40.627 88.273c14.527 5.032 24.961 18.825 24.961 35.064v37.436h22.373l4.868-18.326a113.312 113.312 0 0 0-12.879-88.26z" style="" fill="#d38563" data-original="#d38563"></path><path d="M344.924 34.891a113.25 113.25 0 0 0-22.749-13.419h0a163.702 163.702 0 0 0-132.351 0h0a113.308 113.308 0 0 0-50.828 44.468h0a113.303 113.303 0 0 0-12.878 88.26l4.394 16.543M381.186 171.878l4.696-17.678a113.312 113.312 0 0 0-12.878-88.26h0a113.41 113.41 0 0 0-3.812-5.817M360.097 262.96h6.452v0h25.11c11.363 0 20.575-9.07 20.575-20.258v-49.918c0-11.188-9.212-20.258-20.575-20.258h-31.174M99.767 233.134v9.568c0 11.188 9.212 20.258 20.575 20.258h31.884M151.484 172.526h-31.142c-11.363 0-20.575 9.07-20.575 20.258v5.35" style="stroke-width:15;stroke-linecap:round;stroke-linejoin:round;stroke-miterlimit:10;" fill="none" stroke="#000000" stroke-width="15" stroke-linecap="round" stroke-linejoin="round" stroke-miterlimit="10" data-original="#000000"></path><path d="M153.359 263.106a64.848 64.848 0 0 0 22.148 48.806l40.275 35.238a43.237 43.237 0 0 0 28.471 10.697h23.496a43.24 43.24 0 0 0 28.472-10.697l40.274-35.238a64.851 64.851 0 0 0 22.148-48.806V135.09c0-20.494-16.614-37.108-37.108-37.108h0a37.107 37.107 0 0 0-29.837 15.046h0a38.976 38.976 0 0 1-31.339 15.803h-8.714a38.978 38.978 0 0 1-31.339-15.803h0a37.107 37.107 0 0 0-29.837-15.046h0c-20.494 0-37.108 16.614-37.108 37.108l-.002 128.016z" style="stroke-width:15;stroke-linecap:round;stroke-linejoin:round;stroke-miterlimit:10;" fill="none" stroke="#000000" stroke-width="15" stroke-linecap="round" stroke-linejoin="round" stroke-miterlimit="10" data-original="#000000"></path><path d="M244.484 244.285a25.366 25.366 0 0 0 23.031 0M232.139 285.999c9.314 7.097 19.689 9.785 29.807 8.063M196 169.308c8.531-5.283 22.362-5.283 30.893 0M285.106 169.308c8.531-5.283 22.362-5.283 30.893 0M393.391 263.613v2.661c0 13.636-11.054 24.691-24.691 24.691h-56.926M211.447 193.475v18.007M300.553 193.475v18.007M294.877 305.014H276.34c-7.55 0-13.67-6.12-13.67-13.67v-.787c0-7.55 6.12-13.67 13.67-13.67h18.537c7.55 0 13.67 6.12 13.67 13.67v.787c.001 7.549-6.12 13.67-13.67 13.67zM430.597 424.506l1.471.293c32.895 6.549 56.58 35.416 56.58 68.954V504.5M355.903 409.634l40.331 8.03M23.353 504.5v-10.744c0-33.537 23.687-62.406 56.578-68.956l77.789-15.491M167.975 423.721l-9.809-15.138a26.13 26.13 0 0 1-4.674-14.914v-6.912l41.308-17.489M234.543 434.835l-25.62 30.876c-3.751 4.52-10.778 4.221-14.131-.602l-7.785-12.014M277.466 434.848l25.61 30.863c3.751 4.52 10.778 4.221 14.131-.602l36.627-56.525a26.13 26.13 0 0 0 4.674-14.914v-6.912l-40.521-17.156" style="stroke-width:15;stroke-linecap:round;stroke-linejoin:round;stroke-miterlimit:10;" fill="none" stroke="#000000" stroke-width="15" stroke-linecap="round" stroke-linejoin="round" stroke-miterlimit="10" data-original="#000000"></path><path d="m315.614 332.24-.005 36.354v12.144a41.61 41.61 0 0 1-15.261 32.204l-23.403 19.147a10.003 10.003 0 0 0-1.838 1.973L256 461.131l-19.109-27.069a10.056 10.056 0 0 0-1.837-1.973l-23.403-19.147a41.61 41.61 0 0 1-15.261-32.204l-.003-48.498M256 461.131V504.5M119.914 504.5v-28.594M392.086 504.5v-28.594M120.914 490.203h49.904M341.182 490.203h49.904" style="stroke-width:15;stroke-linecap:round;stroke-linejoin:round;stroke-miterlimit:10;" fill="none" stroke="#000000" stroke-width="15" stroke-linecap="round" stroke-linejoin="round" stroke-miterlimit="10" data-original="#000000"></path></g></svg>