<svg xmlns="http://www.w3.org/2000/svg" version="1.1"  width="512" height="512" x="0" y="0" viewBox="0 0 512 512" style="enable-background:new 0 0 512 512" xml:space="preserve"><g><path fill="#ce7bbc" d="m249.515 201.841-20.346-9.531-21.634-36.841 13.908-32.953 3.748-5.151h-22.082l-43.821 21.977-.734 4.219 1.335 4.195-2.977 5.248-8.91 51.233 7.508 2.24 21.844 30.133 10.429 11.372h7.647l27.043-26.568 28.588-8.499 4.624-4.555z" data-original="#ce7bbc"></path><path fill="#c464b0" d="M154.792 196.505c0-38.428 29.187-70.038 66.602-73.874l.048-.114 10.345-14.217c-12.149-10.218-27.851-16.329-44.921-16.1-15.426.207-29.56 5.59-40.876 14.456l4.884 12.77 9.014 28.33-13.898 24.501-20.613 11.813-5.935 8.246c-.065 0-.129-.004-.194-.005v.012c.068 0 .136.004.204.004l4.123 4.62 31.903 9.519a74.554 74.554 0 0 1-.686-9.961z" data-original="#c464b0"></path><path fill="#ffe02f" d="M363.057 167.587c-.258-.773-4.378-33.996-4.378-33.996l6.664-17.031-26.46.805-40.693 38.104-7.243 47.399 5.468 32.501 27.406 16.951 64.216-50.994 3.928-8.998c.277.005.555.007.833.01v-.043c-.277.005-.55.021-.828.021.002.001-28.655-23.956-28.913-24.729z" data-original="#ffe02f"></path><path fill="#fbc700" d="M298.205 196.505c0-37.761 28.189-68.917 64.667-73.628l2.761-7.056.207-9.452c-11.785-9.048-26.551-14.383-42.516-14.168-16.5.221-31.526 6.36-43.202 16.354l-24.393 99.807 6.883 6.1 60.109 37.179c-15.052-13.592-24.516-33.258-24.516-55.136z" data-original="#fbc700"></path><path fill="#ff5ca8" d="m419.539 197.908-10.603 2.517-11.332 5.666-14.809 19.574-7.469 23.737v64.086l6.954 7.726 4.631 1.474h60.85c7.902 0 14.308-6.406 14.308-14.308v-46.266c.001-28.725-17.592-53.53-42.53-64.206z" data-original="#ff5ca8"></path><path fill="#ff3c98" d="M377.009 308.381v-46.266c0-28.726 17.593-53.531 42.531-64.207a69.158 69.158 0 0 0-28.22-5.591c-33.118.444-60.391 24.296-67.203 55.498v4.506l5.839 22.321v42.925l4.691 4.948c.694.104 1.398.174 2.121.174h54.548c-7.902 0-14.307-6.406-14.307-14.308z" data-original="#ff3c98"></path><path fill="#73d578" d="M188.087 247.962c-4.748-22.823-20.734-41.647-41.849-50.387h-9.788l-23.179 21.006-10.559 25.497-2.833 13.42v56.877l7.533 6.839 6.236 1.474h61.583c.723 0 1.428-.071 2.122-.174l4.941-9.069v-33.996l8.928-21.949z" data-original="#73d578"></path><path fill="#00c63a" d="M102.822 308.381v-45.35c0-29.321 17.867-54.837 43.416-65.455a69.175 69.175 0 0 0-27.449-5.259c-38.333.514-68.859 32.379-68.859 70.715v45.35c0 7.902 6.406 14.308 14.308 14.308h52.892c-7.902-.001-14.308-6.407-14.308-14.309z" data-original="#00c63a"></path><path fill="#00c2fb" d="M282.508 212.986H266.77l-34.34 26.972-11.332 25.411v74.517l10.259 11.976 9.737 3.384h77.432c8.903 0 16.12-7.217 16.12-16.12V287c.001-33.964-21.823-63.074-52.138-74.014z" data-original="#00c2fb"></path><path fill="#00abf2" d="M230.246 339.127v-51.094c0-34.301 21.701-63.982 52.262-75.047a77.969 77.969 0 0 0-27.573-4.624c-43.188.58-77.581 36.48-77.581 79.671v51.094c0 8.903 7.217 16.12 16.12 16.12h52.892c-8.903 0-16.12-7.218-16.12-16.12z" data-original="#00abf2"></path><path fill="#ffcebe" d="M415.738 104.721h-6.029l-17.444 13.16-5.22 21.634 5.22 24.21 11.005 17.513 12.468 4.783c14.028-8.118 23.473-23.276 23.473-40.65s-9.445-32.532-23.473-40.65z" data-original="#ffcebe"></path><path fill="#ffb1a0" d="M392.266 145.371c0-17.374 9.445-32.532 23.473-40.65a46.712 46.712 0 0 0-23.473-6.296c-25.928 0-46.946 21.018-46.946 46.946s21.018 46.946 46.946 46.946a46.712 46.712 0 0 0 23.473-6.296c-14.029-8.119-23.473-23.277-23.473-40.65z" data-original="#ffb1a0"></path><path fill="#ffcebe" d="M348.02 6.426h-6.217l-12.877 15.132-9.615 22.836 3.606 20.432 16.226 18.372 8.879 2.576c13.543-8.03 22.627-22.788 22.627-39.674s-9.086-31.644-22.629-39.674z" data-original="#ffcebe"></path><path fill="#ffb1a0" d="M325.393 46.1c0-16.886 9.084-31.644 22.627-39.674A45.879 45.879 0 0 0 324.547 0c-25.46 0-46.1 20.64-46.1 46.1s20.64 46.1 46.1 46.1a45.879 45.879 0 0 0 23.473-6.426c-13.543-8.031-22.627-22.788-22.627-39.674z" data-original="#ffb1a0"></path><path fill="#ffcebe" d="M279.473 108.071h-7.037l-15.109 13.759s-9.787 21.499-10.13 23.541 0 24.717 0 24.717l14.251 26.259 8.757 6.181 9.269.34c17.432-8.649 29.419-26.62 29.419-47.399-.001-20.779-11.988-38.749-29.42-47.398z" data-original="#ffcebe"></path><path fill="#ffb1a0" d="M250.054 155.469c0-20.779 11.988-38.749 29.419-47.399A52.658 52.658 0 0 0 256 102.577c-29.212 0-52.892 23.681-52.892 52.892s23.681 52.892 52.892 52.892a52.658 52.658 0 0 0 23.473-5.493c-17.431-8.649-29.419-26.62-29.419-47.399z" data-original="#ffb1a0"></path><path fill="#ffcebe" d="M211.561 6.426h-4.026l-18.2 16.162-5.151 21.462v12.877l10.645 19.574 7.211 6.696 9.52 2.576c13.543-8.03 22.627-22.788 22.627-39.674s-9.084-31.643-22.626-39.673z" data-original="#ffcebe"></path><path fill="#ffb1a0" d="M188.934 46.1c0-16.886 9.084-31.644 22.627-39.674A45.882 45.882 0 0 0 188.087 0c-25.46 0-46.1 20.64-46.1 46.1s20.64 46.1 46.1 46.1a45.879 45.879 0 0 0 23.473-6.426c-13.542-8.031-22.626-22.788-22.626-39.674z" data-original="#ffb1a0"></path><path fill="#ffcebe" d="M143.208 104.721h-7.499l-11.62 12.645-7.211 17.771v18.028l7.469 19.96 10.688 12.105 8.173.791c14.028-8.118 23.473-23.276 23.473-40.65s-9.445-32.532-23.473-40.65z" data-original="#ffcebe"></path><path fill="#ffb1a0" d="M119.735 145.371c0-17.374 9.445-32.532 23.473-40.65a46.712 46.712 0 0 0-23.473-6.296c-25.928 0-46.946 21.018-46.946 46.946s21.018 46.946 46.946 46.946a46.712 46.712 0 0 0 23.473-6.296c-14.028-8.119-23.473-23.277-23.473-40.65z" data-original="#ffb1a0"></path><path fill="#ffe02f" d="m232.968 429.533-4.567 5.755 4.567 26.538 19.717 19.13s19.742 3.844 20.441 3.844 15.287-2.795 15.287-2.795l4.209-3.463-.037-.215a11.376 11.376 0 0 1 3.272-10.069l14.785-14.412c6.752-6.581 3.026-18.048-6.305-19.404l-20.432-2.969a11.376 11.376 0 0 1-8.565-6.223l-9.138-18.515c-4.173-8.455-16.23-8.455-20.402 0l-9.138 18.515a11.363 11.363 0 0 1-3.694 4.283z" data-original="#ffe02f"></path><path fill="#fbc700" d="M292.622 478.542a45.512 45.512 0 0 1-14.429 2.344c-25.183 0-45.598-20.415-45.598-45.598 0-1.951.137-3.868.374-5.755a11.358 11.358 0 0 1-4.872 1.94l-20.432 2.969c-9.331 1.356-13.056 12.822-6.305 19.403l14.785 14.412a11.376 11.376 0 0 1 3.272 10.069l-3.49 20.349c-1.594 9.293 8.16 16.38 16.506 11.993l18.275-9.608a11.379 11.379 0 0 1 10.588 0l18.275 9.608c8.346 4.387 18.1-2.699 16.506-11.992z" data-original="#fbc700"></path><path fill="#ffe02f" d="m363.523 407.302-3.369 4.245 3.369 19.577 14.545 14.112s14.563 2.835 15.079 2.835 11.277-2.062 11.277-2.062l3.105-2.554-.027-.159a8.394 8.394 0 0 1 2.413-7.428l10.907-10.632c4.981-4.855 2.232-13.314-4.651-14.314l-15.073-2.19a8.394 8.394 0 0 1-6.319-4.591l-6.741-13.658c-3.078-6.237-11.973-6.237-15.051 0l-6.741 13.658a8.358 8.358 0 0 1-2.723 3.161z" data-original="#ffe02f"></path><path fill="#fbc700" d="M407.529 443.456a33.58 33.58 0 0 1-10.645 1.729c-18.578 0-33.638-15.06-33.638-33.638 0-1.439.101-2.854.276-4.245a8.381 8.381 0 0 1-3.594 1.431l-15.073 2.19c-6.883 1-9.632 9.459-4.651 14.314l10.907 10.632a8.391 8.391 0 0 1 2.413 7.428l-2.575 15.012c-1.176 6.856 6.02 12.083 12.176 8.847l13.481-7.088a8.393 8.393 0 0 1 7.81 0l13.481 7.088c6.157 3.237 13.352-1.991 12.176-8.847z" data-original="#fbc700"></path><path fill="#ffe02f" d="m462.313 368.444-2.797 3.525 2.797 16.255 12.077 11.718s12.092 2.354 12.52 2.354 9.363-1.712 9.363-1.712l2.578-2.121-.023-.132a6.966 6.966 0 0 1 2.004-6.167l9.056-8.827c4.135-4.031 1.853-11.055-3.862-11.885l-12.515-1.819a6.968 6.968 0 0 1-5.246-3.812l-5.597-11.341c-2.556-5.179-9.941-5.179-12.497 0l-5.597 11.341a6.946 6.946 0 0 1-2.261 2.623z" data-original="#ffe02f"></path><path fill="#fbc700" d="M498.851 398.463a27.873 27.873 0 0 1-8.838 1.436c-15.425 0-27.93-12.504-27.93-27.93 0-1.195.084-2.369.229-3.525a6.95 6.95 0 0 1-2.984 1.188l-12.515 1.819c-5.715.83-7.997 7.854-3.862 11.885l9.056 8.827a6.968 6.968 0 0 1 2.004 6.168l-2.138 12.464c-.976 5.692 4.998 10.033 10.11 7.346l11.194-5.885a6.97 6.97 0 0 1 6.485 0l11.194 5.885c5.112 2.687 11.086-1.653 10.11-7.345z" data-original="#fbc700"></path><path fill="#ffe02f" d="m114.496 407.302-3.369 4.245 3.369 19.577 14.545 14.112s14.563 2.835 15.079 2.835 11.277-2.062 11.277-2.062l3.105-2.554-.027-.159a8.394 8.394 0 0 1 2.413-7.428l10.907-10.632c4.981-4.855 2.232-13.314-4.651-14.314l-15.073-2.19a8.394 8.394 0 0 1-6.319-4.591l-6.741-13.658c-3.078-6.237-11.972-6.237-15.051 0l-6.741 13.658a8.34 8.34 0 0 1-2.723 3.161z" data-original="#ffe02f"></path><path fill="#fbc700" d="M158.503 443.456a33.58 33.58 0 0 1-10.645 1.729c-18.578 0-33.638-15.06-33.638-33.638 0-1.439.101-2.854.276-4.245a8.381 8.381 0 0 1-3.594 1.431l-15.073 2.19c-6.883 1-9.632 9.459-4.651 14.314l10.907 10.632a8.391 8.391 0 0 1 2.413 7.428l-2.575 15.012c-1.176 6.856 6.02 12.083 12.176 8.847l13.481-7.088a8.393 8.393 0 0 1 7.81 0l13.481 7.088c6.157 3.237 13.352-1.991 12.176-8.847z" data-original="#fbc700"></path><path fill="#ffe02f" d="m21.473 368.444-2.797 3.525 2.797 16.255 12.077 11.718s12.092 2.354 12.52 2.354 9.363-1.712 9.363-1.712l2.578-2.121-.023-.132a6.966 6.966 0 0 1 2.004-6.167l9.056-8.827c4.135-4.031 1.853-11.055-3.862-11.885l-12.515-1.819a6.968 6.968 0 0 1-5.246-3.812l-5.597-11.341c-2.556-5.179-9.941-5.179-12.497 0l-5.597 11.341a6.946 6.946 0 0 1-2.261 2.623z" data-original="#ffe02f"></path><path fill="#fbc700" d="M58.011 398.463a27.873 27.873 0 0 1-8.838 1.436c-15.425 0-27.93-12.504-27.93-27.93 0-1.195.084-2.369.229-3.525a6.95 6.95 0 0 1-2.984 1.188l-12.515 1.819c-5.715.83-7.997 7.854-3.862 11.885l9.056 8.827a6.968 6.968 0 0 1 2.004 6.168l-2.138 12.464c-.976 5.692 4.998 10.033 10.11 7.346l11.194-5.885a6.97 6.97 0 0 1 6.485 0l11.194 5.885c5.112 2.687 11.086-1.653 10.11-7.345z" data-original="#fbc700"></path></g></svg>