<svg xmlns="http://www.w3.org/2000/svg" version="1.1"  width="512" height="512" x="0" y="0" viewBox="0 0 48 48" style="enable-background:new 0 0 512 512" xml:space="preserve" class="__web-inspector-hide-shortcut__"><g><path d="M41 6H7a4 4 0 0 0-4 4v22a4 4 0 0 0 4 4h11.87l-.75 6H14a1 1 0 0 0 0 2h20a1 1 0 0 0 0-2h-4.12l-.75-6H41a4 4 0 0 0 4-4V10a4 4 0 0 0-4-4zM5 10a2 2 0 0 1 2-2h34a2 2 0 0 1 2 2v19H5zm22.87 32h-7.74l.75-6h6.23zM43 32a2 2 0 0 1-2 2H7a2 2 0 0 1-2-2v-1h38z" fill="#00cbef" data-original="#000000" class="" opacity="1"></path></g></svg>