<svg xmlns="http://www.w3.org/2000/svg" version="1.1"  width="512" height="512" x="0" y="0" viewBox="0 0 512 512" style="enable-background:new 0 0 512 512" xml:space="preserve"><g><path d="m313.062 268.9-45.676-17.97H105.252L59.576 268.9c-17.514 6.89-28.747 24.112-27.994 42.917l6.112 152.603h297.251l6.112-152.603c.752-18.806-10.481-36.027-27.995-42.917z" style="" fill="#c9c6ca" data-original="#c9c6ca"></path><path d="m175.557 280.048-9.429 184.372h40.381l-9.428-184.372z" style="" fill="#6e4b53" data-original="#6e4b53"></path><path d="M134.729 191.741H237.9v88.441H134.729z" style="" fill="#e6af78" data-original="#e6af78"></path><path d="M186.318 7.729c-36.795 1.989-57.729 22.109-57.729 22.109s-30.707 0-30.707 36.848c0 29.479 7.37 58.726 7.37 58.726h169.503C289.494 44.346 254.488 4.044 186.318 7.729z" style="" fill="#5c414b" data-original="#5c414b"></path><path d="M151.918 87.66c-40.081-24.049-23.329-57.821-23.329-57.821s-30.707 0-30.707 36.848c0 29.479 7.37 58.726 7.37 58.726H142.1l9.818-37.753z" style="" fill="#503441" data-original="#503441"></path><path d="M267.385 118.044h-7.37l-12.284-22.416c-66.326 13.818-95.814-7.968-95.814-7.968-16.032 24.048-32.065 40.081-32.065 40.081L105 118.044l-.011.002c-.803.015-1.624.099-2.46.26-7.179 1.381-12.018 8.24-12.018 15.551v5.341c0 7.05 4.515 13.7 11.381 15.302 1.545.361 3.049.462 4.489.348 3.664-.292 6.863 2.374 7.523 5.99 6.265 34.338 36.265 60.382 72.413 60.382s66.148-26.044 72.413-60.382c.636-3.482 3.642-6.019 7.134-5.945h1.519c8.14 0 14.739-6.599 14.739-14.739v-7.37c.003-8.141-6.596-14.74-14.737-14.74z" style="" fill="#f0c087" data-original="#f0c087"></path><path d="m70.191 319.045-32.063-32.063c-4.473 7.299-6.906 15.867-6.547 24.835l6.112 152.603h45.449V350.312a44.22 44.22 0 0 0-12.951-31.267z" style="" fill="#dbd9dc" data-original="#dbd9dc"></path><path d="m199.13 320.128-2.05-40.08h-21.523l-2.05 40.08z" style="" fill="#5c414b" data-original="#5c414b"></path><path d="m186.318 280.408-58.957-51.588-22.109 22.109 34.245 51.367c5.159 7.739 16.109 8.823 22.686 2.246l24.135-24.134zM186.318 280.408l58.957-51.588 22.109 22.109-34.245 51.367c-5.159 7.739-16.109 8.823-22.686 2.246l-24.135-24.134z" style="" fill="#dbd9dc" data-original="#dbd9dc"></path><path d="M142.1 147.522V101.44c-12.152 16.138-22.247 26.3-22.247 26.3l-14.852-9.697-.011.002c-.803.015-1.623.099-2.459.26-7.179 1.381-12.018 8.24-12.018 15.55v5.341c0 7.05 4.515 13.7 11.38 15.302 1.545.361 3.049.462 4.489.348 3.665-.293 6.862 2.374 7.523 5.99 6.266 34.338 36.265 60.382 72.413 60.382 5.01 0 9.884-.547 14.612-1.5-33.575-6.877-58.83-36.586-58.83-72.196z" style="" fill="#e6af78" data-original="#e6af78"></path><path d="M247.983 368.225v113.042c0 12.831 10.402 23.233 23.233 23.233h177.987c12.831 0 23.233-10.402 23.233-23.233V368.225H247.983z" style="" fill="#6e4b53" data-original="#6e4b53"></path><path d="M360.208 432.354c14.055 0 27.546-1.161 40.083-3.295l32.056-8.278c29.209-10.562 48.103-27.38 48.103-46.322v-22.267c0-13.282-10.767-24.048-24.048-24.048H264.015c-13.282 0-24.048 10.767-24.048 24.048v22.267c0 18.942 18.894 35.76 48.103 46.322l32.056 8.278c12.537 2.135 26.028 3.295 40.082 3.295z" style="" fill="#825a5a" data-original="#825a5a"></path><path d="M304.096 448.387c-8.854 0-16.032-7.178-16.032-16.032v-24.048h32.065v24.048c-.001 8.855-7.179 16.032-16.033 16.032zM416.322 448.387c-8.854 0-16.032-7.178-16.032-16.032v-24.048h32.065v24.048c0 8.855-7.178 16.032-16.033 16.032z" style="" fill="#c9c6ca" data-original="#c9c6ca"></path><path d="M288.063 428.013v4.342c0 8.854 7.179 16.032 16.032 16.032 8.854 0 16.032-7.178 16.032-16.032v-4.342h-32.064zM400.29 428.013v4.342c0 8.854 7.178 16.032 16.032 16.032s16.032-7.178 16.032-16.032v-4.342H400.29z" style="" fill="#dbd9dc" data-original="#dbd9dc"></path><path d="m239.372 306.457 30.606-45.908 35.323 13.625a7.49 7.49 0 0 0 2.698.504 7.5 7.5 0 0 0 2.701-14.5l-38.202-14.735-21.927-21.926a7.477 7.477 0 0 0-5.173-2.191v-17.918a80.849 80.849 0 0 0 20.668-40.801.199.199 0 0 1 .02-.021c1.91.113 3.838-.027 5.744-.417 10.306-2.11 17.787-11.678 17.787-22.751v-5.743c0-6.491-2.668-12.44-6.996-16.653 7.033-37.871 1.355-68.717-16.492-89.326-17.206-19.87-44.946-29.36-80.224-27.457-32.856 1.776-53.958 16.993-60.433 22.358-9.112 1.184-35.099 7.751-35.099 44.089 0 20.121 3.269 36.855 5.565 46.131-7.733 3.615-12.934 11.686-12.934 20.942v5.657c0 11.073 7.48 20.641 17.788 22.751 1.904.39 3.835.53 5.743.417a.398.398 0 0 1 .02.022 80.85 80.85 0 0 0 20.668 40.8v17.918a7.477 7.477 0 0 0-5.173 2.191l-21.926 21.926-42.969 16.574c-20.664 7.97-33.951 28.193-33.065 50.323l6.103 152.379a7.5 7.5 0 0 0 14.989-.6L39.079 311.74a36.677 36.677 0 0 1 1.442-11.754l24.362 24.362c6.935 6.935 10.754 16.156 10.754 25.963v114.108a7.5 7.5 0 0 0 15 0V350.311c0-13.814-5.379-26.802-15.148-36.57L48 286.252a36.653 36.653 0 0 1 14.554-10.24l40.091-15.464 30.606 45.908a22.158 22.158 0 0 0 16.313 9.795 22.104 22.104 0 0 0 13.721-3.138l-6.573 150.979a7.5 7.5 0 0 0 7.499 7.826 7.5 7.5 0 0 0 7.487-7.174l6.095-139.989h17.043l6.095 139.989a7.5 7.5 0 1 0 14.986-.652l-6.573-150.979a22.1 22.1 0 0 0 13.719 3.138 22.154 22.154 0 0 0 16.309-9.794zm-53.063-36.015-44.088-38.577v-15.947c12.772 8.276 27.951 13.032 44.088 13.032s31.316-4.756 44.087-13.032v15.947l-44.087 38.577zm-80.573-122.837a7.164 7.164 0 0 1-1.937-.132c-3.304-.676-5.795-4.14-5.795-8.056v-5.657c0-3.832 2.579-7.286 5.871-7.864 2.771-.486 5.424.532 7.106 2.725 1.397 1.821 3.259 3.123 5.39 3.767 3.113.939 6.549.388 9.19-1.477 6.096-4.303 11.263-9.761 15.356-16.221a7.501 7.501 0 0 0-12.67-8.03c-2.334 3.683-5.126 6.919-8.329 9.656a22.17 22.17 0 0 0-8.808-4.744c-2.009-7.565-5.737-24.366-5.737-44.887 0-12.215 3.786-20.805 11.254-25.528 5.813-3.678 11.951-3.819 11.953-3.82a7.573 7.573 0 0 0 5.177-2.073c.192-.183 19.642-18.247 52.957-20.047 30.478-1.651 54.017 6.063 68.074 22.296 14.24 16.445 18.933 41.712 13.692 73.323-2.254-.105-4.753.059-7.238.495l-7.516-18.051a7.501 7.501 0 0 0-8.828-4.371c-.732.192-73.627 18.791-104.363-19.472a7.5 7.5 0 0 0-10.544-1.15 7.5 7.5 0 0 0-1.15 10.544c31.177 38.815 93.263 30.113 113.46 26.035l5.842 14.03c2.389 5.736 8.499 8.869 14.526 7.449 2.363-.557 4.934-.658 6.056-.435 3.358.668 5.89 4.005 5.89 7.763v5.743c0 3.917-2.492 7.38-5.794 8.056a7.095 7.095 0 0 1-1.938.132c-7.358-.538-14.198 4.815-15.552 12.193-5.764 31.378-33.109 54.152-65.021 54.152-31.913 0-59.258-22.774-65.021-54.152-1.356-7.377-8.192-12.728-15.553-12.192zm45.302 153.72a7.21 7.21 0 0 1-5.31-3.188l-30.834-46.252 12.8-12.8 47.644 41.688-18.466 18.467a7.214 7.214 0 0 1-5.834 2.085zm27.403 8.432.495-11.369 7.373-7.374 7.374 7.374.495 11.368-15.737.001zm43.14-8.432c-1.274.129-3.724.022-5.832-2.085l-18.466-18.467 47.643-41.688 12.8 12.8-30.834 46.251a7.212 7.212 0 0 1-5.311 3.189z" fill="#000000" data-original="#000000"></path><path d="M487.951 352.193c0-17.396-14.152-31.548-31.548-31.548H407.79v-16.548c0-12.976-10.557-23.532-23.532-23.532H336.16c-12.976 0-23.532 10.557-23.532 23.532v16.548h-48.613c-17.396 0-31.548 14.152-31.548 31.548v22.267c0 8.209 2.764 16.092 8.016 23.382v83.424c0 16.946 13.787 30.733 30.733 30.733h177.987c16.946 0 30.733-13.787 30.733-30.733v-83.424c5.252-7.291 8.016-15.174 8.016-23.383l-.001-22.266zm-160.323-48.097c0-4.705 3.828-8.532 8.532-8.532h48.097c4.705 0 8.532 3.828 8.532 8.532v16.548h-65.162l.001-16.548zM449.202 497H271.216c-8.675 0-15.733-7.058-15.733-15.733v-68.793c6.936 5.037 15.342 9.571 25.081 13.468v6.414c0 12.976 10.557 23.532 23.532 23.532 11.145 0 20.499-7.791 22.918-18.211 10.769 1.439 21.895 2.179 33.195 2.179 2.74 0 5.517-.044 8.253-.131a7.499 7.499 0 0 0 7.258-7.734c-.131-4.14-3.564-7.401-7.734-7.258-2.579.082-5.195.123-7.778.123-11.119 0-22.046-.757-32.581-2.232v-14.316a7.5 7.5 0 0 0-7.5-7.5h-32.064a7.5 7.5 0 0 0-7.5 7.5v1.332c-20.915-9.537-33.097-22.305-33.097-35.178v-22.267c0-9.125 7.423-16.548 16.548-16.548h192.388c9.125 0 16.548 7.423 16.548 16.548v22.267c0 12.874-12.182 25.641-33.097 35.178v-1.332a7.5 7.5 0 0 0-7.5-7.5h-32.064a7.5 7.5 0 0 0-7.5 7.5v24.048c0 12.976 10.557 23.532 23.532 23.532s23.532-10.557 23.532-23.532v-6.414c9.738-3.896 18.145-8.43 25.081-13.467v68.793c.001 8.675-7.056 15.732-15.732 15.732zm-153.639-81.194h17.064v16.548c0 4.705-3.828 8.532-8.532 8.532-4.704 0-8.532-3.828-8.532-8.532v-16.548zm129.292 0v16.548c0 4.705-3.828 8.532-8.532 8.532s-8.532-3.828-8.532-8.532v-16.548h17.064z" fill="#000000" data-original="#000000"></path></g></svg>