<svg xmlns="http://www.w3.org/2000/svg" version="1.1"  width="512" height="512" x="0" y="0" viewBox="0 0 512 512" style="enable-background:new 0 0 512 512" xml:space="preserve"><g><path fill="#fe6a16" d="M116.36 429.234H51.022c-8.414 0-15.234-6.82-15.234-15.234V281.137c0-8.414 6.82-15.235 15.234-15.235h65.336c8.41 0 15.235 6.82 15.235 15.235V414c0 8.414-6.82 15.234-15.235 15.234zm0 0" data-original="#fe6a16"></path><path fill="#ff432e" d="M116.36 265.902H83.69v163.332h32.668c8.41 0 15.235-6.82 15.235-15.234V281.137c0-8.414-6.82-15.235-15.235-15.235zm0 0" data-original="#ff432e"></path><path fill="#19cffc" d="M460.977 429.234H395.64c-8.414 0-15.235-6.82-15.235-15.234V116.008c0-8.414 6.82-15.235 15.235-15.235h65.336c8.414 0 15.234 6.82 15.234 15.235V414c0 8.414-6.82 15.234-15.234 15.234zm0 0" data-original="#19cffc"></path><path fill="#fe6a16" d="M346.105 429.234H280.77c-8.415 0-15.235-6.82-15.235-15.234V165.547c0-8.414 6.82-15.234 15.235-15.234h65.335c8.41 0 15.235 6.82 15.235 15.234V414c0 8.414-6.824 15.234-15.235 15.234zM231.23 429.234h-65.335c-8.41 0-15.235-6.82-15.235-15.234V223.344c0-8.414 6.824-15.239 15.235-15.239h65.335c8.415 0 15.235 6.825 15.235 15.239V414c0 8.414-6.82 15.234-15.235 15.234zm0 0" data-original="#fe6a16"></path><path fill="#ff432e" d="M231.23 208.105h-32.667v221.13h32.667c8.415 0 15.235-6.82 15.235-15.235V223.344c0-8.414-6.82-15.239-15.235-15.239zM346.105 150.313h-32.667v278.921h32.667c8.41 0 15.235-6.82 15.235-15.234V165.547c0-8.414-6.824-15.234-15.235-15.234zm0 0" data-original="#ff432e"></path><path fill="#4ab8f7" d="M460.977 100.773h-32.668v328.461h32.668c8.414 0 15.234-6.82 15.234-15.234V116.008c0-8.414-6.82-15.235-15.234-15.235zm0 0" data-original="#4ab8f7"></path><path fill="#27488f" d="M496.766 429.234H15.234C6.82 429.234 0 422.414 0 414s6.82-15.234 15.234-15.234h481.532c8.414 0 15.234 6.82 15.234 15.234s-6.82 15.234-15.234 15.234zm0 0" data-original="#27488f"></path><path fill="#ffe45c" d="M344.652 5.668A15.263 15.263 0 0 0 333.97.992L283.883.004c-8.38-.16-15.367 6.516-15.535 14.93-.164 8.414 6.52 15.367 14.933 15.53l15.711.313c-8.574 9.114-32.68 32.008-81.101 60.059-62.16 36.008-140.407 43.246-141.192 43.316-8.375.73-14.578 8.114-13.851 16.493.687 7.937 7.343 13.921 15.164 13.921.437 0 .883-.02 1.332-.058 3.465-.301 85.648-7.817 153.82-47.309 45.824-26.543 72.008-49.472 84.492-61.96l-.215 10.769c-.164 8.414 6.52 15.367 14.93 15.535.106 0 .207.004.309.004 8.273 0 15.062-6.625 15.226-14.934l.992-50.086a15.225 15.225 0 0 0-4.246-10.859zm0 0" data-original="#ffe45c"></path><path fill="#12254c" d="M496.766 398.766H256v30.468h240.766c8.414 0 15.234-6.82 15.234-15.234s-6.82-15.234-15.234-15.234zm0 0" data-original="#12254c"></path><path fill="#ffbc36" d="M333.969.992 283.883.004c-8.38-.16-15.367 6.516-15.535 14.93-.164 8.414 6.52 15.367 14.933 15.53l15.711.313c-5.93 6.301-19.297 19.203-42.992 35.836v36.664c31.95-20.523 51.418-37.797 61.656-48.039l-.215 10.77c-.164 8.414 6.52 15.367 14.93 15.535.106 0 .207.004.309.004 8.273 0 15.062-6.625 15.226-14.934l.992-50.086a15.228 15.228 0 0 0-4.25-10.859 15.247 15.247 0 0 0-10.68-4.676zm0 0" data-original="#ffbc36"></path></g></svg>