<svg xmlns="http://www.w3.org/2000/svg" version="1.1"  height="512" x="0" y="0" viewBox="0 0 62 62.522" style="enable-background:new 0 0 512 512" xml:space="preserve" class=""><g><path fill="#e6e9ed" d="M61 41.287v16H41v-12.51c1.17.33 2.42.51 3.7.51h2.6c3.77 0 7.19-1.52 9.67-4h.01z" opacity="1" data-original="#e6e9ed" class=""></path><path fill="#ccd1d9" d="M35.03 41.287c1.63 1.64 3.68 2.85 5.97 3.49v12.51h-7c-.55 0-1-.45-1-1v-14c0-.55.45-1 1-1h1.02z" opacity="1" data-original="#ccd1d9"></path><path fill="#fcd770" d="M21 9.287v16h-4.54c-.69-1.2-1.98-2-3.46-2-1.1 0-2.1.45-2.83 1.17-.24.25-.46.53-.63.83H1v-16z" opacity="1" data-original="#fcd770"></path><path fill="#f0d0b4" d="M17 45.467v-8.18h.74c3.44 0 6.82.94 9.77 2.71l5.49 3.29v10l-.55.28a16.398 16.398 0 0 1-7.31 1.72c-2.07 0-4.13-.4-6.06-1.17l-2.5-1-7.44-2.97a.914.914 0 0 1-.14-.07 1.81 1.81 0 0 1-.5-.29c-.92-.61-1.5-1.66-1.5-2.8v-.3c0-1.38.82-2.56 2-3.09.42-.2.9-.31 1.4-.31.4 0 .79.07 1.16.2l1.44.52v.01z" opacity="1" data-original="#f0d0b4"></path><path fill="#f0d0b4" d="M9 43.587v.01c-1.18.53-2 1.71-2 3.09v.3c0 1.14.58 2.19 1.5 2.8l-.01.01-2.75 2.75c-.47.47-1.12.74-1.79.74h-.42c-.7 0-1.33-.28-1.79-.74S1 51.457 1 50.757c0-.31.06-.62.17-.91l2.61-6.79A9.02 9.02 0 0 1 9 37.867z" opacity="1" data-original="#f0d0b4"></path><path fill="#b4dd7f" d="m9.14 50.147 7.44 2.97-.58 1.17h-6l-.79-1.58c-.14-.28-.21-.58-.21-.89v-1.74c.05.03.09.05.14.07zM10.4 43.287c-.5 0-.98.11-1.4.31V29.287h4v14.72l-1.44-.52c-.37-.13-.76-.2-1.16-.2z" opacity="1" data-original="#b4dd7f"></path><path fill="#ff826e" d="M17 37.287v8.18l-4-1.45v-14.73h4z" opacity="1" data-original="#ff826e"></path><path fill="#ccd1d9" d="M17 27.287v2H9v-2c0-.73.2-1.41.54-2 .17-.3.39-.58.63-.83.73-.72 1.73-1.17 2.83-1.17 1.48 0 2.77.8 3.46 2 .34.59.54 1.27.54 2zM16 54.287l-3 6-3-6z" opacity="1" data-original="#ccd1d9"></path><path fill="#ffc729" d="M29 23.287v1c0 .55-.45 1-1 1h-7v-16h7c.55 0 1 .45 1 1z" opacity="1" data-original="#ffc729"></path><path fill="#a0d468" d="M49 15.287h-8l-.64-1.75v-.01c2.03-.88 2.9-1.5 3.64-2.24h2c.83 0 1.58-.34 2.12-.88s.88-1.29.88-2.12c0-.55-.45-1-1-1h-9.91l-1.09-3 3-3 3 2 1-2h5l1 2 3-2 3 3-2.78 5-2.22 4c-.55 0-1.05.22-1.41.59-.37.36-.59.86-.59 1.41z" opacity="1" data-original="#a0d468"></path><path fill="#b4dd7f" d="m56.57 20.527 1.59 2.07c1.84 2.39 2.84 5.33 2.84 8.35v.64c0 3.79-1.54 7.22-4.02 9.7h-.01c-2.48 2.48-5.9 4-9.67 4h-2.6c-1.28 0-2.53-.18-3.7-.51-2.29-.64-4.34-1.85-5.97-3.49h-.01a13.68 13.68 0 0 1-4.02-9.7c0-1.7.32-3.38.92-4.94.24-.64.53-1.25.88-1.84.49-.87 1.08-1.69 1.76-2.44l6.44-7.08h8c0 1.1.9 2 2 2-.55 0-1.05.22-1.41.59-.37.36-.59.86-.59 1.41 0 1.1.9 2 2 2-.55 0-1.05.22-1.41.59-.37.36-.59.86-.59 1.41 0 1.1.9 2 2 2h4c.55 0 1.05-.22 1.41-.59.37-.36.59-.86.59-1.41 0-1.1-.9-2-2-2 .55 0 1.05-.22 1.41-.59.06-.05.11-.11.16-.17z" opacity="1" data-original="#b4dd7f"></path><path fill="#f0d0b4" d="M57 23.287c0 .55-.22 1.05-.59 1.41-.36.37-.86.59-1.41.59h-4c-1.1 0-2-.9-2-2 0-.55.22-1.05.59-1.41.36-.37.86-.59 1.41-.59h4c1.1 0 2 .9 2 2zM57 19.287c0 .47-.16.9-.43 1.24-.05.06-.1.12-.16.17-.36.37-.86.59-1.41.59h-4c-1.1 0-2-.9-2-2 0-.55.22-1.05.59-1.41.36-.37.86-.59 1.41-.59h4c1.1 0 2 .9 2 2zM55 13.287c1.1 0 2 .9 2 2 0 .55-.22 1.05-.59 1.41-.36.37-.86.59-1.41.59h-4c-1.1 0-2-.9-2-2 0-.55.22-1.05.59-1.41.36-.37.86-.59 1.41-.59z" opacity="1" data-original="#f0d0b4"></path><path fill="#f0d0b4" d="M59 9.287c1.1 0 2 .9 2 2 0 .55-.22 1.05-.59 1.41-.36.37-.86.59-1.41.59h-8l2.22-4zM41 15.287l-6.44 7.08c-.68.75-1.27 1.57-1.76 2.44l-3.8-1.52v-13l1.42-1.42a5.39 5.39 0 0 1 3.81-1.58H48c.55 0 1 .45 1 1 0 .83-.34 1.58-.88 2.12s-1.29.88-2.12.88h-2c-.74.74-1.61 1.36-3.64 2.24v.01z" opacity="1" data-original="#f0d0b4"></path><path d="M57.767 20.444c.149-.357.233-.747.233-1.157a2.98 2.98 0 0 0-.78-2c.48-.532.78-1.229.78-2 0-.352-.072-.686-.184-1H59c1.654 0 3-1.346 3-3s-1.346-3-3-3h-4.078l2.319-4.174L53.127 0l-2.74 1.826-.77-1.54h-6.236l-.77 1.54L39.873 0l-4.03 4.03.82 2.257h-2.434a6.339 6.339 0 0 0-4.512 1.869l-.53.53A1.979 1.979 0 0 0 28 8.287H0v18h8.101a4.988 4.988 0 0 0-.101 1v9.929a10.008 10.008 0 0 0-5.152 5.481L.235 49.49a3.533 3.533 0 0 0 3.295 4.796h.422c.943 0 1.829-.367 2.496-1.034L8 51.701v.114c0 .463.109.927.316 1.342L13 62.522l4.066-8.132 1.642.657a17.265 17.265 0 0 0 6.437 1.239c2.347 0 4.697-.487 6.855-1.414v1.414c0 1.103.897 2 2 2h28v-18h-2.88A14.605 14.605 0 0 0 62 31.583v-.637c0-3.225-1.083-6.409-3.049-8.964zM56 23.287c0 .551-.449 1-1 1h-4c-.551 0-1-.449-1-1s.449-1 1-1h4c.551 0 1 .448 1 1zm0-4c0 .551-.449 1-1 1h-4c-.551 0-1-.449-1-1s.449-1 1-1h4c.551 0 1 .448 1 1zm0-4c0 .551-.449 1-1 1h-4c-.551 0-1-.449-1-1s.449-1 1-1h4c.551 0 1 .448 1 1zm3-5c.551 0 1 .449 1 1s-.449 1-1 1h-6.3l1.111-2zM38.157 4.543l1.97-1.97 3.26 2.174 1.23-2.46h3.764l1.23 2.46 3.26-2.174 1.887 1.887-4.385 7.894a3 3 0 0 0-2.19 1.932H41.7l-.07-.194a10.293 10.293 0 0 0 2.772-1.806H46c2.206 0 4-1.794 4-4 0-1.103-.897-2-2-2h-9.209zm-3.928 3.744H48c0 1.103-.897 2-2 2h-2.414l-.293.293a8.314 8.314 0 0 1-4.263 2.281l-2.227.445.393 1.961 2.227-.445c.107-.021.207-.061.313-.085l.118.324-6.03 6.633a14.769 14.769 0 0 0-1.431 1.872L30 22.609V10.701l1.131-1.131a4.35 4.35 0 0 1 3.098-1.283zm-4.286 16.454 1.465.586A14.675 14.675 0 0 0 30 31.584c0 3.368 1.15 6.465 3.062 8.947-.429.23-.762.606-.933 1.067l-4.102-2.461A19.988 19.988 0 0 0 18 36.296v-9.009c0-.342-.035-.677-.101-1H28a2 2 0 0 0 1.943-1.546zM14 43.313V30.287h2v13.754zm2-15.026h-6v-1c0-1.654 1.346-3 3-3s3 1.346 3 3zm-6 2h2v12.299l-.096-.035a4.386 4.386 0 0 0-1.503-.265c-.137 0-.267.028-.401.041zm18-6h-6v-14h6zm-26 0v-14h18v14h-3.026c-.914-1.207-2.348-2-3.974-2s-3.061.793-3.974 2zm3.034 27.551a1.52 1.52 0 0 1-1.082.448H3.53a1.531 1.531 0 0 1-1.428-2.079l2.613-6.792A7.997 7.997 0 0 1 8 39.476v3.533c-1.202.787-2 2.14-2 3.68v.297c0 1.071.388 2.065 1.047 2.841zm5.071.424a1.02 1.02 0 0 1-.105-.448v-.251l4.307 1.723h-3.689zm1.513 3.025h2.764L13 58.051zm7.834-2.097-9.943-3.977A2.387 2.387 0 0 1 8 46.984v-.297a2.404 2.404 0 0 1 3.221-2.256l8.558 3.112c1.357.493 2.777.744 4.221.744v-2c-1.21 0-2.4-.21-3.538-.624L18 44.768v-6.472c3.171.046 6.276.923 8.998 2.556L32 43.853v8.816c-3.869 1.935-8.531 2.128-12.548.521zM34 42.287h.654A14.712 14.712 0 0 0 40 45.502v10.785h-6zm26 14H42v-10.26c.877.164 1.778.26 2.703.26h2.595c3.887 0 7.417-1.527 10.049-4H60zm0-24.703c0 7.004-5.698 12.703-12.703 12.703h-2.595C37.698 44.287 32 38.588 32 31.584c0-3.167 1.173-6.201 3.303-8.544l6.139-6.753h6.742c.133.374.335.711.596 1-.48.532-.78 1.229-.78 2s.301 1.468.78 2a2.976 2.976 0 0 0-.78 2c0 1.654 1.346 3 3 3h4a3 3 0 0 0 2.912-2.309A12.775 12.775 0 0 1 60 30.948z" fill="#000000" opacity="1" data-original="#000000" class=""></path><path d="M47 25.388v-2.101h-2v2h-4v3c0 2.757 2.243 5 5 5 1.654 0 3 1.346 3 3v1h-3c-1.654 0-3-1.346-3-3v-1h-2v1a5.01 5.01 0 0 0 4 4.899v2.101h2v-2h4v-3c0-2.757-2.243-5-5-5-1.654 0-3-1.346-3-3v-1h3c1.654 0 3 1.346 3 3v1h2v-1a5.008 5.008 0 0 0-4-4.899z" fill="#000000" opacity="1" data-original="#000000" class=""></path></g></svg>