<svg xmlns="http://www.w3.org/2000/svg" version="1.1" xmlns:xlink="http://www.w3.org/1999/xlink" width="512" height="512" x="0" y="0" viewBox="0 0 64 64" style="enable-background:new 0 0 512 512" xml:space="preserve" class=""><g><path fill="#fa6450" d="M55.303 26.35C52.91 16.456 44.409 8.949 34 8.089V6l-6 4 6 4v-1.899c8.759.874 15.864 7.424 17.591 15.907L54 24.395z" opacity="1" data-original="#fa6450"></path><path fill="#dc4632" d="M34 7.333V6l-6 4 6 4v-1.333L30 10zM36 12.101v.315c7.824 1.597 13.998 7.766 15.591 15.592l1.424-2.136C50.617 18.448 44.006 12.9 36 12.101z" opacity="1" data-original="#dc4632"></path><path fill="#fa6450" d="M27.999 12.403 24.395 10l2.004-1.336C16.475 11.038 8.948 19.572 8.086 30H6l4 6 1-1.5 3-4.5h-1.893c.875-8.756 7.413-15.868 15.892-17.597z" opacity="1" data-original="#fa6450"></path><path fill="#dc4632" d="M10.086 30c.741-8.978 6.429-16.54 14.327-19.988L24.395 10l2.004-1.336C16.475 11.038 8.948 19.572 8.086 30H10z" opacity="1" data-original="#dc4632"></path><path fill="#fa6450" d="M8.697 37.65C11.09 47.544 19.591 55.051 30 55.911V58l6-4-6-4v1.899c-8.759-.874-15.864-7.424-17.591-15.907L10 39.605zM36.001 51.597 39.605 54l-2.004 1.336C47.525 52.962 55.052 44.428 55.914 34H58l-4-6-1 1.5-3 4.5h1.893c-.875 8.756-7.413 15.868-15.892 17.597z" opacity="1" data-original="#fa6450"></path><path fill="#dc4632" d="M31.303 57.131v-1.22c-9.921-.819-18.096-7.682-20.914-16.89l-.389.584-1.303-1.955C11.09 47.544 19.591 55.051 30 55.911V58zM54.303 29.5l.349-.522L54 28l-1 1.5-3 4.5h1.303zM39.986 54.615l.923-.615-3.605-2.403C45.783 49.868 52.321 42.756 53.196 34h-1.303c-.874 8.756-7.413 15.868-15.892 17.597L39.605 54l-2.004 1.336a23.803 23.803 0 0 0 2.385-.721zM6 30l4 6 1-1.5L8 30z" opacity="1" data-original="#dc4632"></path><path fill="#fab400" d="M26 46h12a4 4 0 0 0 4-4v-7a5.999 5.999 0 0 0-2.4-4.8L34 26h-4l-5.6 4.2A5.999 5.999 0 0 0 22 35v7a4 4 0 0 0 4 4zM30 24l-.828-.828A4 4 0 0 1 28 20.343V18h8v2.343a3.995 3.995 0 0 1-1.172 2.828L34 24z" opacity="1" data-original="#fab400"></path><path fill="#dc9600" d="M26 42v-7c0-1.889.889-3.667 2.4-4.8L34 26h-4l-5.6 4.2A5.999 5.999 0 0 0 22 35v7a4 4 0 0 0 4 4h4a4 4 0 0 1-4-4zM32 20.343V18h-4v2.343c0 1.061.421 2.078 1.172 2.828L30 24h4l-.828-.828A4 4 0 0 1 32 20.343z" opacity="1" data-original="#dc9600"></path><path fill="#505050" d="M29 26h6a1 1 0 0 0 0-2h-6a1 1 0 0 0 0 2z" opacity="1" data-original="#505050"></path><path fill="#3c3c3c" d="M30 25a1 1 0 0 1 1-1h-2a1 1 0 0 0 0 2h2a1 1 0 0 1-1-1z" opacity="1" data-original="#3c3c3c"></path><circle cx="32" cy="36" r="6" fill="#be7800" opacity="1" data-original="#be7800"></circle><path fill="#fab400" d="M34 33.857v-1.428h-1.333V31h-1.334v1.429H30v4.285h2.667v1.429H30v1.428h1.333V41h1.334v-1.429H34v-4.285h-2.667v-1.429z" opacity="1" data-original="#fab400"></path></g></svg>