<svg xmlns="http://www.w3.org/2000/svg" version="1.1"  width="512" height="512" x="0" y="0" viewBox="0 0 449 449.912" style="enable-background:new 0 0 512 512" class=""><g><path fill="#ffe165" d="M392.906 30.07a7.998 7.998 0 0 1-5.922-7.3l-.375-7.204a8 8 0 0 0-14.695-3.894L368 17.703a7.992 7.992 0 0 1-8.797 3.367l-6.937-1.863a7.998 7.998 0 0 0-8.825 3.371 7.996 7.996 0 0 0 .536 9.43l4.52 5.601a7.928 7.928 0 0 1 1.335 7.489l46.035-14.227zm0 0" data-original="#ffe165"></path><path fill="#ffd839" d="m399.848 31.922-4-1.074-46.016 14.16a7.849 7.849 0 0 1-.797 1.906l-3.914 6.023a8.007 8.007 0 0 0 .492 9.41 8.006 8.006 0 0 0 9.11 2.415l6.703-2.578a7.998 7.998 0 0 1 9.086 2.402l4.523 5.598a7.993 7.993 0 0 0 9.082 2.437 8.006 8.006 0 0 0 5.125-7.887l-.375-7.199a7.994 7.994 0 0 1 5.117-7.887l6.707-2.578a7.999 7.999 0 0 0-.844-15.148zm0 0" data-original="#ffd839" class=""></path><path fill="#ff9811" d="M133.594 40.23a7.998 7.998 0 0 0-8.29-12.797l-34.19 9.192a7.75 7.75 0 0 1-3.2.11l-45.57 85.335-.43 8.38a7.997 7.997 0 0 0 5.121 7.89 7.995 7.995 0 0 0 9.086-2.438l22.274-27.511a8.004 8.004 0 0 1 9.085-2.399l33.051 12.68a7.998 7.998 0 0 0 9.598-11.824l-19.336-29.72a8.008 8.008 0 0 1 .488-9.394zm0 0" data-original="#ff9811"></path><path fill="#ffaf46" d="M82.328 33.273 63.051 3.586A7.998 7.998 0 0 0 54.309.273a7.994 7.994 0 0 0-5.914 7.239l-1.891 35.36a7.996 7.996 0 0 1-5.918 7.312L6.395 59.328a7.998 7.998 0 0 0-5.926 7.309 7.994 7.994 0 0 0 5.125 7.89l33.047 12.68a8.002 8.002 0 0 1 5.12 7.89l-1.417 26.973 45.539-85.336a7.944 7.944 0 0 1-5.555-3.46zm0 0" data-original="#ffaf46"></path><path fill="#ffd839" d="m283.7 171.887-59.052-90.918a15.998 15.998 0 0 0-29.398 7.879l-5.672 108.265a15.999 15.999 0 0 1-11.832 14.614L73.027 239.785a16 16 0 0 0-11.855 14.617 16.003 16.003 0 0 0 10.254 15.782L172.64 309.03a16.003 16.003 0 0 1 10.25 15.778l-5.059 96.382 112.84-243.488a15.744 15.744 0 0 1-6.973-5.816zm0 0" data-original="#ffd839" class=""></path><path fill="#ffcd00" d="M422.555 176.098c4.351-5.387 4.746-12.961.976-18.77s-10.847-8.535-17.539-6.75l-104.734 28.055c-3.531.918-7.27.59-10.586-.93l-112.84 243.488-.637 11.88a15.996 15.996 0 0 0 28.414 10.906l68.223-84.25A16.008 16.008 0 0 1 292 354.855l101.219 38.856a15.994 15.994 0 0 0 18.18-4.848 16.01 16.01 0 0 0 .996-18.793l-59.06-90.933a16.01 16.01 0 0 1 .985-18.785zm0 0" data-original="#ffcd00" class=""></path></g></svg>