<svg xmlns="http://www.w3.org/2000/svg" version="1.1" width="512" height="512" x="0" y="0" viewBox="0 0 512 512" style="enable-background:new 0 0 512 512" xml:space="preserve" class=""><g><g fill-rule="evenodd" clip-rule="evenodd"><path fill="#0000e5" d="M61.906 368.094h388.189C472.592 368.094 491 386.502 491 409c0 22.499-18.407 40.906-40.906 40.906H61.906C39.408 449.906 21 431.499 21 409c0-22.498 18.407-40.906 40.906-40.906zm0-306h388.189c22.498 0 40.906 18.407 40.906 40.906s-18.407 40.906-40.906 40.906H61.906C39.408 143.906 21 125.498 21 103c0-22.499 18.407-40.906 40.906-40.906zm0 153h388.189C472.592 215.094 491 233.501 491 256s-18.407 40.906-40.906 40.906H61.906C39.408 296.906 21 278.499 21 256c0-22.498 18.407-40.906 40.906-40.906z" opacity="1" data-original="#d60000" class=""></path><path fill="#4d4dfd" d="M84.705 368.094h342.589c22.498 0 40.906 18.407 40.906 40.906s-18.407 40.906-40.906 40.906H84.705C62.207 449.906 43.8 431.499 43.8 409c0-22.498 18.407-40.906 40.905-40.906zm0-224.188C62.207 143.906 43.8 125.498 43.8 103c0-22.499 18.407-40.906 40.906-40.906h342.589c22.498 0 40.906 18.407 40.906 40.906s-18.407 40.906-40.906 40.906zm0 153C62.207 296.906 43.8 278.499 43.8 256s18.407-40.906 40.906-40.906h342.589c22.498 0 40.906 18.407 40.906 40.906s-18.407 40.906-40.906 40.906z" opacity="1" data-original="#ed2f2f" class=""></path></g></g></svg>